<svg width="18" height="18" viewBox="0 0 18 18" fill="none" xmlns="http://www.w3.org/2000/svg">
<path fill-rule="evenodd" clip-rule="evenodd" d="M3.03239 1.46365C2.31912 1.46365 1.74042 2.05209 1.74042 2.77645V3.5491C1.74042 4.08567 1.94446 4.60167 2.30945 4.98978L6.30936 9.24296L6.31112 9.24027C7.08331 10.0308 7.51778 11.0995 7.51778 12.2137V15.9876C7.51778 16.2398 7.78163 16.4007 8.00062 16.2818L10.2785 15.0405C10.6224 14.8527 10.837 14.4879 10.837 14.0917V12.2039C10.837 11.0959 11.2653 10.0317 12.0304 9.24296L16.0304 4.98978C16.3945 4.60167 16.5985 4.08567 16.5985 3.5491V2.77645C16.5985 2.05209 16.0207 1.46365 15.3074 1.46365H3.03239Z" stroke="#2F80ED" stroke-width="1.6" stroke-linecap="round" stroke-linejoin="round"/>
</svg>
