<svg width="25" height="25" viewBox="0 0 25 25" fill="none" xmlns="http://www.w3.org/2000/svg">
<path d="M0.960083 5.72607C0.960083 2.96465 3.19866 0.726074 5.96008 0.726074H19.9601C22.7215 0.726074 24.9601 2.96465 24.9601 5.72607V19.7261C24.9601 22.4875 22.7215 24.7261 19.9601 24.7261H5.96008C3.19866 24.7261 0.960083 22.4875 0.960083 19.7261V5.72607Z" fill="white"/>
<path d="M18.2633 7.42269V6.42269H19.2633V7.42269H18.2633ZM8.36384 18.7364C7.97331 19.1269 7.34015 19.1269 6.94962 18.7364C6.5591 18.3459 6.5591 17.7127 6.94962 17.3222L8.36384 18.7364ZM9.77805 6.42269H18.2633V8.42269H9.77805V6.42269ZM19.2633 7.42269V15.908H17.2633V7.42269H19.2633ZM18.9704 8.1298L8.36384 18.7364L6.94962 17.3222L17.5562 6.71559L18.9704 8.1298Z" fill="#0F1E0B"/>
<path d="M5.96008 1.72607H19.9601V-0.273926H5.96008V1.72607ZM23.9601 5.72607V19.7261H25.9601V5.72607H23.9601ZM19.9601 23.7261H5.96008V25.7261H19.9601V23.7261ZM1.96008 19.7261V5.72607H-0.039917V19.7261H1.96008ZM5.96008 23.7261C3.75094 23.7261 1.96008 21.9352 1.96008 19.7261H-0.039917C-0.039917 23.0398 2.64637 25.7261 5.96008 25.7261V23.7261ZM23.9601 19.7261C23.9601 21.9352 22.1692 23.7261 19.9601 23.7261V25.7261C23.2738 25.7261 25.9601 23.0398 25.9601 19.7261H23.9601ZM19.9601 1.72607C22.1692 1.72607 23.9601 3.51694 23.9601 5.72607H25.9601C25.9601 2.41237 23.2738 -0.273926 19.9601 -0.273926V1.72607ZM5.96008 -0.273926C2.64637 -0.273926 -0.039917 2.41237 -0.039917 5.72607H1.96008C1.96008 3.51693 3.75094 1.72607 5.96008 1.72607V-0.273926Z" fill="black" fill-opacity="0.1"/>
</svg>
