<svg width="15" height="16" viewBox="0 0 15 16" fill="none" xmlns="http://www.w3.org/2000/svg">
<path fill-rule="evenodd" clip-rule="evenodd" d="M4.10846 -0.000244141C3.84328 -0.000244141 3.62832 0.214721 3.62832 0.479895V1.47986C1.48333 1.68706 0.148438 3.15688 0.148438 5.48149V11.9128C0.148438 14.4572 1.7076 16.0001 4.16519 16.0001H10.0522C12.5122 16.0001 14.069 14.4824 14.069 11.9665V5.48149C14.076 3.15396 12.7424 1.68357 10.5891 1.47913V0.479895C10.5891 0.214721 10.3741 -0.000244141 10.1089 -0.000244141H9.67715C9.41197 -0.000244141 9.19701 0.214721 9.19701 0.479895V1.45457H5.02037V0.479895C5.02037 0.214721 4.80541 -0.000244141 4.54024 -0.000244141H4.10846ZM3.62832 2.94187V3.88329C3.62832 4.14846 3.84328 4.36343 4.10846 4.36343H4.54024C4.80541 4.36343 5.02037 4.14846 5.02037 3.88329V2.90962H9.19701V3.88329C9.19701 4.14846 9.41197 4.36343 9.67715 4.36343H10.1089C10.3741 4.36343 10.5891 4.14846 10.5891 3.88329V2.94094C11.9594 3.11168 12.681 3.97791 12.6765 5.47971V5.81903H1.54003V5.48198C1.54003 3.98309 2.26412 3.11504 3.62832 2.94187ZM1.54003 7.27358V11.9133C1.54003 13.6362 2.45953 14.5461 4.16473 14.5461H10.0518C11.7636 14.5461 12.6765 13.6561 12.6765 11.967L12.6765 7.27358H1.54003Z" fill="#0F1E0B"/>
</svg>
