<?xml version="1.0" encoding="UTF-8" standalone="no"?>
<!-- Created with Inkscape (http://www.inkscape.org/) -->

<svg
   xmlns:dc="http://purl.org/dc/elements/1.1/"
   xmlns:cc="http://creativecommons.org/ns#"
   xmlns:rdf="http://www.w3.org/1999/02/22-rdf-syntax-ns#"
   xmlns:svg="http://www.w3.org/2000/svg"
   xmlns="http://www.w3.org/2000/svg"
   xmlns:sodipodi="http://sodipodi.sourceforge.net/DTD/sodipodi-0.dtd"
   xmlns:inkscape="http://www.inkscape.org/namespaces/inkscape"
   width="520mm"
   height="80mm"
   viewBox="0 0 520 80"
   version="1.1"
   id="svg8"
   inkscape:version="0.92.4 (5da689c313, 2019-01-14)"
   sodipodi:docname="Logo and Text Black._svg.svg">
  <defs
     id="defs2" />
  <sodipodi:namedview
     id="base"
     pagecolor="#ffffff"
     bordercolor="#666666"
     borderopacity="1.0"
     inkscape:pageopacity="0.0"
     inkscape:pageshadow="2"
     inkscape:zoom="0.7"
     inkscape:cx="1015.8006"
     inkscape:cy="245.41134"
     inkscape:document-units="mm"
     inkscape:current-layer="layer1"
     showgrid="false"
     inkscape:window-width="1920"
     inkscape:window-height="1001"
     inkscape:window-x="-9"
     inkscape:window-y="-9"
     inkscape:window-maximized="1" />
  <metadata
     id="metadata5">
    <rdf:RDF>
      <cc:Work
         rdf:about="">
        <dc:format>image/svg+xml</dc:format>
        <dc:type
           rdf:resource="http://purl.org/dc/dcmitype/StillImage" />
        <dc:title></dc:title>
      </cc:Work>
    </rdf:RDF>
  </metadata>
  <g
     inkscape:label="Layer 1"
     inkscape:groupmode="layer"
     id="layer1"
     transform="translate(0,-217)">
    <path
       style="fill:#000000;stroke-width:0.03527778"
       d="m 34.116173,288.47007 v -5.14989 l -0.07938,-0.016 c -0.04366,-0.009 -0.301625,-0.0423 -0.573264,-0.0745 -0.973586,-0.11534 -2.14487,-0.33828 -3.157361,-0.60095 -0.658035,-0.17072 -2.112838,-0.63498 -2.439882,-0.77862 -0.148664,-0.0653 -0.280431,-0.11872 -0.292816,-0.11872 -0.03794,0 -1.248497,-0.56184 -1.641746,-0.76196 -0.603885,-0.30731 -1.030933,-0.5514 -1.678078,-0.95914 -1.092867,-0.68857 -2.384277,-1.75612 -3.36271,-2.77981 -1.15803,-1.21159 -2.193204,-2.65172 -3.022425,-4.20477 l -0.13703,-0.25664 2.046816,-2.04682 2.046816,-2.04682 0.171447,0.39847 c 1.043439,2.42505 2.492146,4.29933 4.476525,5.79155 0.942635,0.70885 2.497747,1.54262 3.674333,1.96998 1.101771,0.4002 1.833832,0.61063 2.786944,0.80111 0.662821,0.13247 1.028391,0.18546 2.221718,0.32206 0.882917,0.10107 1.01808,0.10789 1.869721,0.0944 0.798611,-0.0127 1.836702,-0.0895 2.505505,-0.18547 1.284838,-0.18432 2.288551,-0.42243 3.569247,-0.84676 1.463587,-0.48492 3.060728,-1.3209 4.232818,-2.21557 0.969751,-0.74022 1.715738,-1.50836 2.575207,-2.65171 1.305391,-1.73655 2.26357,-3.93711 2.726545,-6.26181 0.268323,-1.34731 0.357512,-2.21306 0.374333,-3.63361 l 0.01316,-1.11125 0.539206,-0.61631 c 0.844815,-0.96562 3.911773,-4.45832 3.961451,-4.51136 0.04992,-0.0533 0.108557,0.16767 0.30286,1.14128 0.396,1.98427 0.547296,3.77905 0.486032,5.76565 -0.23005,7.45994 -3.376573,13.49546 -8.897566,17.06691 -2.191759,1.41782 -4.749447,2.42513 -7.53732,2.96849 -0.563114,0.10974 -1.579421,0.2651 -2.046111,0.31277 l -0.264583,0.027 -0.0089,5.15937 -0.0089,5.15938 h -2.716269 -2.716272 z m 23.353888,-27.87012 c 0,-0.0194 -0.007,-0.0353 -0.01556,-0.0353 -0.0086,0 -0.02537,0.0159 -0.03736,0.0353 -0.01199,0.0194 -0.005,0.0353 0.01556,0.0353 0.02055,0 0.03736,-0.0159 0.03736,-0.0353 z m 37.976526,32.50238 c -4.824571,-0.1087 -9.637554,-0.50985 -14.340416,-1.19525 -1.324497,-0.19302 -3.899606,-0.61891 -3.957094,-0.65444 -0.03213,-0.0199 0.02765,-0.78453 0.249763,-3.19502 0.160602,-1.74291 0.296721,-3.17381 0.302489,-3.17978 0.0058,-0.006 1.381435,0.0376 3.057038,0.0968 9.24682,0.32661 10.068711,0.35139 12.891755,0.38876 2.445311,0.0324 6.886588,-0.005 8.093548,-0.0679 4.91924,-0.2568 7.37514,-1.15041 8.87428,-3.22899 0.29223,-0.4052 0.74835,-1.32392 0.92826,-1.86973 0.37255,-1.13025 0.58618,-2.43183 0.67754,-4.12794 0.0526,-0.97648 0.0228,-3.26641 -0.0529,-4.06647 -0.27403,-2.89573 -1.01078,-4.76759 -2.40551,-6.11166 -0.95664,-0.9219 -2.12026,-1.56218 -3.93966,-2.16782 -0.94034,-0.31302 -1.33313,-0.41516 -9.550056,-2.48333 -4.006673,-1.00847 -7.530923,-1.90528 -7.831666,-1.99292 -4.321595,-1.25936 -7.43428,-3.36267 -9.398116,-6.35052 -1.733155,-2.63689 -2.631383,-5.82979 -2.878261,-10.23124 -0.04742,-0.84551 -0.048,-3.4233 -9.88e-4,-4.32518 0.196134,-3.76107 0.792226,-6.50496 1.885301,-8.67833 0.565588,-1.12456 1.124455,-1.91637 1.938422,-2.74636 2.245999,-2.2902 5.569536,-3.51951 10.834874,-4.0076 1.958058,-0.18151 3.728953,-0.24624 6.738056,-0.24629 2.506334,-4e-5 3.533774,0.024 5.979584,0.13999 4.99885,0.23704 9.281,0.71454 13.28208,1.48108 0.87214,0.16708 1.60508,0.32101 1.62003,0.34022 0.005,0.007 -0.12241,1.40094 -0.28331,3.09868 -0.16091,1.69774 -0.29333,3.10869 -0.29429,3.13544 -0.001,0.0397 -0.0716,0.0444 -0.38097,0.0258 -4.01286,-0.24203 -13.33803,-0.47953 -18.829513,-0.47956 -4.626667,-2e-5 -6.85335,0.15177 -8.537222,0.58198 -1.353259,0.34574 -2.291595,0.84351 -3.089219,1.63878 -1.181195,1.17771 -1.801749,2.87735 -2.063714,5.65234 -0.07475,0.79177 -0.106938,3.20842 -0.05395,4.05026 0.100623,1.59873 0.28975,2.71976 0.636831,3.77472 0.912939,2.7749 2.700806,4.31232 6.316306,5.4315 0.320146,0.0991 3.915833,1.014 7.990416,2.03312 4.074575,1.01911 7.674805,1.92381 8.000495,2.01045 2.88396,0.76712 5.1723,1.78561 6.99255,3.11223 1.15535,0.84203 2.20907,1.89726 3.02929,3.03361 0.69625,0.9646 1.34882,2.22319 1.79948,3.47059 0.72314,2.00158 1.13924,4.31398 1.29099,7.17444 0.0478,0.901 0.0484,3.56554 9.5e-4,4.46201 -0.26455,5.00159 -1.28073,8.39158 -3.2673,10.89983 -0.41079,0.51866 -1.35203,1.42565 -1.92511,1.85505 -2.75978,2.06787 -6.64988,3.11358 -12.78162,3.43589 -1.73578,0.0912 -5.394709,0.13138 -7.54944,0.0828 z M 291.66158,292.0112 c -3.61873,-0.27152 -6.29087,-1.2998 -8.41375,-3.23774 -2.10195,-1.91883 -3.30333,-4.6575 -3.49156,-7.95935 -0.0483,-0.84751 -0.0483,-45.01359 0,-45.86111 0.30784,-5.40004 3.29742,-9.17475 8.41281,-10.62221 0.52319,-0.14805 1.49352,-0.35281 1.99319,-0.42062 1.1442,-0.15528 0.95366,-0.15015 6.17361,-0.16609 10.56988,-0.0323 18.17652,0.12736 24.98549,0.52432 l 0.73201,0.0427 7.1e-4,0.12632 c 0.001,0.1979 -0.3546,6.42725 -0.37434,6.55568 l -0.0176,0.11466 h -13.97991 c -9.60691,0 -14.10046,0.0117 -14.36528,0.0375 -3.06346,0.2981 -4.57549,1.95228 -4.88327,5.34236 -0.0222,0.24426 -0.0352,3.27365 -0.0353,8.17562 l -3e-5,7.78757 h 14.71083 14.71084 v 3.4925 3.4925 h -14.71084 -14.71083 l 3.5e-4,9.72785 c 3.6e-4,6.33561 0.013,9.87547 0.0365,10.15118 0.12944,1.51678 0.51083,2.71421 1.12828,3.5424 0.25174,0.33766 0.71727,0.78323 1.0464,1.00153 0.701,0.46496 1.68636,0.7722 2.78634,0.86878 0.2957,0.026 4.76307,0.0377 14.34763,0.0377 h 13.91824 l 0.0177,0.11465 c 0.0199,0.12888 0.37517,6.25294 0.3742,6.44981 l -6.3e-4,0.12627 -0.71438,0.0422 c -3.93387,0.23245 -7.71416,0.36674 -13.13215,0.46651 -1.87081,0.0344 -16.17032,0.0747 -16.54528,0.0465 z m -164.55319,-0.0757 c 0,-0.0147 4.96729,-14.92844 11.03841,-33.14171 10.05492,-30.16455 11.05367,-33.14073 11.20952,-33.40332 0.42246,-0.71178 1.11674,-1.22912 1.93498,-1.44184 0.52338,-0.13606 1.02624,-0.14755 5.87375,-0.13429 4.54022,0.0124 4.64579,0.0142 4.95653,0.0856 1.02924,0.23648 1.80374,0.81342 2.24072,1.66913 0.0586,0.11482 22.15386,66.32301 22.15386,66.38389 0,0.005 -2.01321,0.009 -4.4738,0.009 h -4.4738 l -3.24024,-10.29229 c -1.78214,-5.66076 -3.29379,-10.46297 -3.35923,-10.67157 l -0.11898,-0.37928 -14.04752,0.009 -14.04751,0.009 -3.35399,10.65388 -3.35399,10.65389 -4.46935,0.009 c -2.45815,0.005 -4.46936,-0.003 -4.46936,-0.0177 z m 41.36341,-28.83964 c -0.0162,-0.047 -8.57252,-26.98581 -9.07321,-28.56618 -0.28924,-0.91295 -0.89361,-2.93802 -1.09233,-3.66007 l -0.0995,-0.3616 h -1.40041 c -1.30332,0 -1.40166,0.004 -1.41848,0.0617 -0.01,0.034 -0.0914,0.32367 -0.18111,0.64382 -0.23764,0.8484 -0.71047,2.41997 -1.05076,3.4925 -0.16313,0.51417 -2.25952,7.1132 -4.65863,14.66451 -2.39911,7.55131 -4.36202,13.73859 -4.36202,13.74951 0,0.0109 5.25413,0.0199 11.67584,0.0199 9.32526,0 11.67278,-0.009 11.66063,-0.0441 z m 27.6752,-5.20604 v -34.07209 l 1.33173,-0.13073 c 3.65306,-0.35862 6.65469,-0.54317 10.69799,-0.65776 0.64999,-0.0184 3.38784,-0.0527 6.08411,-0.0762 7.53068,-0.0656 9.92767,0.0178 12.91045,0.44921 6.20318,0.89721 9.9591,3.23105 12.03165,7.47619 1.25487,2.57031 1.89035,5.53006 2.17764,10.14236 0.0612,0.98187 0.0608,5.50535 -4.5e-4,6.49111 -0.24278,3.9041 -0.71077,6.52754 -1.57646,8.83709 -2.15849,5.75859 -6.52618,8.43093 -14.81708,9.06572 -1.21305,0.0929 -1.99233,0.12373 -3.70416,0.14664 -3.96306,0.0531 -9.224,-0.16801 -14.44625,-0.60703 -0.80522,-0.0677 -1.58706,-0.1329 -1.73743,-0.14492 l -0.27341,-0.0218 v 13.58717 13.58717 h -4.33916 -4.33917 v -34.07208 z m 24.765,0.1701 c 3.06821,-0.14125 5.13995,-0.55551 6.79097,-1.35787 0.80855,-0.39295 1.37987,-0.78836 1.98808,-1.37597 2.0975,-2.02645 3.003,-5.36662 3.003,-11.07737 0,-8.33474 -1.94409,-11.9505 -7.12284,-13.24759 -1.02071,-0.25565 -2.09722,-0.41047 -3.70671,-0.53307 -1.14366,-0.0871 -14.64191,-0.0639 -16.57174,0.0285 l -0.46743,0.0224 v 13.78814 13.78815 l 7.6641,-3.6e-4 c 4.51927,0 7.97532,-0.0145 8.42257,-0.0351 z m 33.51388,-0.17635 v -34.07833 h 4.33917 4.33917 v 34.07833 34.07833 h -4.33917 -4.33917 z m 81.20944,1.57776 c 0,-22.10062 0.0116,-32.59624 0.0364,-32.79952 0.19434,-1.59735 1.00106,-2.47789 2.53891,-2.77124 0.30924,-0.059 0.65955,-0.0649 4.5332,-0.0769 4.56094,-0.014 5.12965,7e-4 5.715,0.14806 1.04864,0.264 1.86156,0.97645 2.41765,2.11887 0.0756,0.15522 5.16086,10.88672 11.30067,23.84778 6.13985,12.96106 11.41243,24.07356 11.71685,24.69444 1.37936,2.81321 2.72217,5.67744 3.94455,8.41375 l 0.22849,0.51153 0.86759,0.009 0.86755,0.009 -0.0174,-0.20346 c -0.0409,-0.47802 -0.14951,-2.98509 -0.23506,-5.42457 -0.0295,-0.841 -0.0444,-8.51636 -0.0538,-27.64896 l -0.0129,-26.48479 h 4.28752 4.28752 v 32.50057 c 0,22.10062 -0.0116,32.59624 -0.0364,32.79952 -0.10368,0.85211 -0.38989,1.51559 -0.85408,1.97977 -0.50433,0.50434 -1.18371,0.77226 -2.13473,0.84184 -0.57643,0.0422 -8.52067,0.0428 -9.12801,6.7e-4 -0.98743,-0.0684 -1.62631,-0.303 -2.23281,-0.81982 -0.48552,-0.41375 -0.8208,-0.91524 -1.31025,-1.95988 -0.17032,-0.36347 -5.45306,-11.45587 -11.73945,-24.64976 -11.4366,-24.00314 -12.65613,-26.56749 -13.16917,-27.69137 -0.85831,-1.88021 -1.44603,-3.33667 -1.79792,-4.4555 l -0.14701,-0.46743 h -0.80941 -0.8094 l 0.0179,0.13229 c 0.0804,0.5955 0.23539,2.8373 0.30172,4.36562 0.087,2.00352 0.10239,6.53803 0.10345,30.38299 l 10e-4,25.19715 h -4.33917 -4.33917 z m 65.79306,28.79952 v -3.70105 l 18.11513,-26.65452 c 9.96333,-14.65999 18.11514,-26.66289 18.11514,-26.67312 0,-0.0102 -8.01687,-0.0186 -17.81527,-0.0186 H 402.0281 v -3.70417 -3.70416 h 22.59541 22.59542 v 3.701 3.70101 l -18.07252,26.66434 -18.07256,26.66434 18.42534,0.009 18.4253,0.009 v 3.70413 3.70413 h -23.24806 -23.24805 z m 52.17583,3.67465 c 0,-0.0147 4.96728,-14.92844 11.03841,-33.14171 10.05491,-30.16455 11.05366,-33.14073 11.20952,-33.40332 0.42245,-0.71178 1.11675,-1.22912 1.93498,-1.44184 0.52338,-0.13606 1.02623,-0.14755 5.87375,-0.13429 4.54022,0.0124 4.6458,0.0142 4.95653,0.0856 1.02923,0.23648 1.80375,0.81342 2.2407,1.66913 0.0586,0.11482 22.15388,66.32301 22.15388,66.38389 0,0.005 -2.01319,0.009 -4.47378,0.009 h -4.47383 l -3.24022,-10.29236 c -1.78213,-5.66076 -3.29378,-10.46297 -3.35922,-10.67157 l -0.119,-0.37928 -14.0475,0.009 -14.04754,0.009 -3.35397,10.65388 -3.35399,10.65389 -4.46938,0.009 c -2.45812,0.005 -4.46934,-0.003 -4.46934,-0.0177 z m 41.3634,-28.83964 c -0.0162,-0.047 -8.57253,-26.98581 -9.0732,-28.56618 -0.28924,-0.91295 -0.89362,-2.93802 -1.09234,-3.66007 l -0.0995,-0.3616 h -1.40042 c -1.3033,0 -1.40165,0.004 -1.41845,0.0617 -0.01,0.034 -0.0914,0.32367 -0.18111,0.64382 -0.23767,0.8484 -0.7105,2.41997 -1.05075,3.4925 -0.16316,0.51417 -2.25954,7.1132 -4.65864,14.66451 -2.3991,7.55131 -4.36203,13.73859 -4.36203,13.74951 0,0.0109 5.25413,0.0199 11.67585,0.0199 9.32526,0 11.67275,-0.009 11.66061,-0.0441 z M 8.751452,280.93966 c -2.2491804,-0.32261 -4.050266,-1.69183 -4.653444,-3.53763 -0.311642,-0.95366 -0.279709,-2.20742 0.08048,-3.15983 0.55849,-1.47674 1.8273495,-2.53058 3.5959944,-2.9866 0.570127,-0.147 1.0723971,-0.21332 1.8765512,-0.24777 0.7785414,-0.0333 1.1376014,-0.093 1.5236884,-0.25328 0.394857,-0.16388 0.716091,-0.41318 1.422006,-1.10356 0.358952,-0.35106 1.437703,-1.40006 2.397225,-2.33112 4.258155,-4.13185 9.117289,-8.88527 9.351922,-9.14846 0.0979,-0.10981 0.225902,-0.29491 0.28446,-0.41132 l 0.106468,-0.21167 -0.0238,-0.81139 c -0.02616,-0.89179 0.0084,-1.22942 0.184437,-1.79917 0.128541,-0.41613 0.470857,-1.08679 0.729989,-1.43018 0.805595,-1.06753 2.137612,-1.88202 3.575813,-2.1865 1.426529,-0.30202 3.334512,0.10168 4.654952,0.98491 0.807707,0.54026 1.483534,1.38617 1.762416,2.20593 0.175997,0.51735 0.203602,0.77372 0.195202,1.81279 -0.0048,0.59628 0.0065,1.01679 0.02978,1.10313 0.02847,0.10573 0.08632,0.17849 0.238869,0.30044 1.00649,0.80461 5.351872,3.32465 5.927044,3.43729 0.132426,0.0259 0.621845,0.0352 1.435644,0.0272 1.152627,-0.0113 1.24788,-0.0171 1.432637,-0.0865 0.63082,-0.23688 1.311116,-0.92975 4.723334,-4.8106 1.018646,-1.15855 2.71012,-3.08104 3.75883,-4.2722 1.048709,-1.19116 2.001209,-2.27837 2.116666,-2.41603 0.115458,-0.13766 0.487733,-0.50509 0.827282,-0.81652 1.231043,-1.12908 1.637785,-1.6145 1.708552,-2.03904 0.01436,-0.0862 -0.0049,-0.33516 -0.04865,-0.62969 -0.03982,-0.26795 -0.0724,-0.61939 -0.0724,-0.78098 0,-1.75787 1.205459,-3.53553 2.97725,-4.39049 0.546707,-0.2638 0.908823,-0.36855 1.7786,-0.51448 0.499304,-0.0838 0.613861,-0.091 1.170816,-0.0738 0.927894,0.0287 1.580554,0.18514 2.38125,0.57087 0.599807,0.28895 1.002214,0.57518 1.484538,1.05596 0.817979,0.81535 1.276816,1.70967 1.448721,2.82372 0.06544,0.42411 0.04752,1.17436 -0.03736,1.56414 -0.387435,1.77912 -1.803217,3.19192 -3.766873,3.75895 -0.4754,0.13728 -0.976147,0.19785 -1.638275,0.19817 -0.778422,3.8e-4 -1.166911,0.0457 -1.409651,0.1646 -0.550142,0.26938 -1.877617,1.57075 -3.682248,3.60984 -2.295687,2.59394 -4.835214,5.46909 -5.584433,6.32247 -0.484826,0.55223 -0.89873,0.98299 -1.233322,1.28352 -1.555323,1.39706 -2.459898,2.28543 -2.559928,2.51408 -0.08694,0.19873 -0.07205,0.62323 0.03878,1.10578 0.137061,0.59676 0.122125,0.95248 -0.07154,1.70345 -0.472528,1.83237 -1.895168,3.19744 -3.845645,3.69004 -1.093783,0.27624 -2.316165,0.28081 -3.324496,0.0124 -1.758004,-0.46791 -3.149438,-1.70185 -3.669517,-3.25419 -0.212435,-0.63408 -0.259351,-1.21975 -0.156622,-1.95519 0.03058,-0.21895 0.05719,-0.50003 0.05912,-0.62462 0.0033,-0.21424 -0.0027,-0.23173 -0.11102,-0.32215 -0.063,-0.0526 -0.268192,-0.17986 -0.455997,-0.28282 -0.187804,-0.10296 -1.16285,-0.64492 -2.166764,-1.20436 -1.003914,-0.55944 -1.8627,-1.03139 -1.908413,-1.04876 -0.09866,-0.0375 -0.470681,-0.26188 -0.82339,-0.49659 -0.457119,-0.3042 -0.422901,-0.29934 -2.110396,-0.29934 -1.465449,0 -1.483871,8.8e-4 -1.683006,0.0813 -0.56877,0.2298 -1.031488,0.62982 -3.230121,2.79245 -0.957454,0.94177 -2.283623,2.24335 -2.947043,2.89238 -0.66342,0.64904 -2.198405,2.15758 -3.411079,3.35231 -1.212674,1.19473 -2.466798,2.40374 -2.786944,2.68668 -1.015076,0.89711 -1.381115,1.32542 -1.443865,1.68948 -0.01831,0.10622 -0.0431,0.57413 -0.05509,1.0398 -0.02988,1.16009 -0.121832,1.6258 -0.44929,2.27542 -0.249824,0.49561 -0.479817,0.80697 -0.926039,1.25364 -0.847324,0.84819 -1.833246,1.35529 -3.09149,1.59009 -0.409367,0.0764 -1.4716093,0.0951 -1.9011667,0.0335 z m 1.586924,-2.80648 c 0.43377,-0.12413 0.722934,-0.29718 1.059712,-0.63417 0.46373,-0.46404 0.669476,-0.93938 0.669476,-1.54673 0,-0.60199 -0.198742,-1.0554 -0.668535,-1.52519 -0.487158,-0.48716 -0.969549,-0.6876 -1.7536254,-0.72864 -0.4932391,-0.0258 -0.9286275,0.064 -1.3632179,0.2811 -0.562543,0.28108 -1.0540111,0.88764 -1.2061229,1.48857 -0.06784,0.26801 -0.067412,0.74818 9.243e-4,1.03808 0.2007792,0.85175 0.9557349,1.52753 1.8945104,1.69581 0.3105334,0.0557 1.0644845,0.0177 1.3668765,-0.0688 z m 33.990713,-9.96687 c 0.537718,-0.14481 1.100465,-0.51247 1.448258,-0.94618 0.727375,-0.90707 0.670582,-2.00171 -0.146236,-2.81868 -0.505753,-0.50584 -1.251554,-0.76735 -2.060494,-0.72249 -0.916281,0.0508 -1.601774,0.40856 -2.040894,1.0651 -0.269935,0.40358 -0.340674,0.65053 -0.338825,1.18283 0.0014,0.39246 0.01188,0.46722 0.09561,0.67957 0.315937,0.80126 1.024121,1.40112 1.880553,1.59289 0.297074,0.0665 0.850808,0.0508 1.162025,-0.033 z M 31.05666,258.45054 c 0.795017,-0.20476 1.474277,-0.79489 1.719612,-1.49398 0.107425,-0.30611 0.133579,-0.84779 0.05563,-1.15207 -0.168537,-0.65786 -0.683411,-1.2699 -1.308643,-1.55559 -0.356191,-0.16276 -0.716008,-0.22677 -1.253979,-0.22309 -0.533802,0.004 -0.73919,0.0476 -1.133365,0.24239 -0.622757,0.30778 -1.048457,0.77622 -1.2337,1.35758 -0.09507,0.29838 -0.102281,0.83806 -0.01551,1.16111 0.248112,0.92368 1.007802,1.58168 2.013771,1.7442 0.219184,0.0354 0.886417,-0.0111 1.156182,-0.0806 z m 33.17741,-10.85337 c 1.043051,-0.26791 1.878002,-1.27041 1.878002,-2.25486 0,-0.67625 -0.395983,-1.35177 -1.043136,-1.77952 -0.756289,-0.49988 -1.935092,-0.54874 -2.83621,-0.11756 -0.331763,0.15875 -0.839572,0.65087 -1.014056,0.98273 -0.559506,1.06416 -0.03756,2.34596 1.209763,2.97093 0.543303,0.27222 1.225938,0.34718 1.805637,0.19828 z m -48.702261,17.72271 c -0.153005,-1.32512 -0.184751,-1.89838 -0.185203,-3.34434 -5.75e-4,-1.83563 0.11999,-3.02583 0.496696,-4.90337 0.931268,-4.64152 3.154577,-9.9645 6.623322,-15.85736 3.150095,-5.35152 7.486354,-11.32135 12.209675,-16.80934 0.896257,-1.04136 2.11612,-2.39941 2.155254,-2.39941 0.07487,0 2.100276,2.30902 3.512223,4.00403 5.680893,6.81976 10.425398,13.8791 13.490878,20.07305 0.707753,1.43005 1.430997,3.01805 1.406073,3.08726 -0.0081,0.0224 -2.260533,2.59793 -3.809072,4.35535 -0.05175,0.0587 -0.100414,0.0989 -0.108133,0.0892 -0.0077,-0.01 -0.10596,-0.26367 -0.218306,-0.56442 -2.221833,-5.94763 -6.726911,-13.37607 -12.697749,-20.93736 -0.967553,-1.22528 -1.538478,-1.92264 -1.574062,-1.92264 -0.06284,0 -2.179418,2.67109 -3.36692,4.24902 -6.121799,8.1345 -10.191576,15.5225 -11.923367,21.64487 -0.432759,1.52993 -0.725239,3.04739 -0.832943,4.32153 -0.02296,0.27164 -0.0521,0.55168 -0.06475,0.62233 -0.0203,0.11336 -0.312145,0.40935 -2.487067,2.52236 -1.355236,1.31665 -2.483859,2.39858 -2.50805,2.40427 -0.03191,0.008 -0.06444,-0.16678 -0.118499,-0.635 z m 6.29006,-16.32632 c 0.01199,-0.0194 0.005,-0.0353 -0.01556,-0.0353 -0.02055,0 -0.03736,0.0159 -0.03736,0.0353 0,0.0194 0.007,0.0353 0.01556,0.0353 0.0086,0 0.02537,-0.0159 0.03736,-0.0353 z M 38.08681,222.02944 c -0.03548,-0.0259 -0.05836,-0.0642 -0.05084,-0.0849 0.0075,-0.0208 0.0422,4.6e-4 0.07706,0.0472 0.07208,0.0966 0.06607,0.10523 -0.02622,0.0377 z"
       id="path21"
       inkscape:connector-curvature="0" />
  </g>
</svg>
