<svg width="25" height="25" viewBox="0 0 25 25" fill="none" xmlns="http://www.w3.org/2000/svg">
<g id="Iconly/Light-Outline/Logout">
<g id="Logout">
<path id="Fill 1" fill-rule="evenodd" clip-rule="evenodd" d="M11.986 22.1525H7.09999C4.65599 22.1525 2.66699 20.1635 2.66699 17.7175V6.5885C2.66699 4.1425 4.65599 2.1525 7.09999 2.1525H11.975C14.421 2.1525 16.411 4.1425 16.411 6.5885V7.5205C16.411 7.9345 16.075 8.2705 15.661 8.2705C15.247 8.2705 14.911 7.9345 14.911 7.5205V6.5885C14.911 4.9685 13.594 3.6525 11.975 3.6525H7.09999C5.48299 3.6525 4.16699 4.9685 4.16699 6.5885V17.7175C4.16699 19.3365 5.48299 20.6525 7.09999 20.6525H11.986C13.598 20.6525 14.911 19.3405 14.911 17.7285V16.7855C14.911 16.3715 15.247 16.0355 15.661 16.0355C16.075 16.0355 16.411 16.3715 16.411 16.7855V17.7285C16.411 20.1685 14.425 22.1525 11.986 22.1525" fill="#EB5757"/>
<g id="Group 5">
<mask id="mask0" mask-type="alpha" maskUnits="userSpaceOnUse" x="9" y="11" width="15" height="2">
<path id="Clip 4" fill-rule="evenodd" clip-rule="evenodd" d="M9.6626 11.4025H23.2035V12.9025H9.6626V11.4025Z" fill="white"/>
</mask>
<g mask="url(#mask0)">
<path id="Fill 3" fill-rule="evenodd" clip-rule="evenodd" d="M22.4536 12.9025H10.4126C9.9986 12.9025 9.6626 12.5665 9.6626 12.1525C9.6626 11.7385 9.9986 11.4025 10.4126 11.4025H22.4536C22.8676 11.4025 23.2036 11.7385 23.2036 12.1525C23.2036 12.5665 22.8676 12.9025 22.4536 12.9025" fill="#EB5757"/>
</g>
</g>
<g id="Group 8">
<mask id="mask1" mask-type="alpha" maskUnits="userSpaceOnUse" x="18" y="8" width="6" height="8">
<path id="Clip 7" fill-rule="evenodd" clip-rule="evenodd" d="M18.7764 8.48775H23.2037V15.8185H18.7764V8.48775Z" fill="white"/>
</mask>
<g mask="url(#mask1)">
<path id="Fill 6" fill-rule="evenodd" clip-rule="evenodd" d="M19.5261 15.8185C19.3341 15.8185 19.1411 15.7455 18.9951 15.5975C18.7031 15.3035 18.7041 14.8295 18.9971 14.5375L21.3911 12.1525L18.9971 9.7685C18.7041 9.4765 18.7021 9.0025 18.9951 8.7085C19.2871 8.4145 19.7611 8.4145 20.0551 8.7065L22.9831 11.6215C23.1251 11.7615 23.2041 11.9535 23.2041 12.1525C23.2041 12.3515 23.1251 12.5435 22.9831 12.6835L20.0551 15.5995C19.9091 15.7455 19.7171 15.8185 19.5261 15.8185" fill="#EB5757"/>
</g>
</g>
</g>
</g>
</svg>
