<svg width="34" height="34" viewBox="0 0 34 34" fill="none" xmlns="http://www.w3.org/2000/svg">
<circle r="16.2841" transform="matrix(1 0 0 -1 16.8491 16.8394)" fill="white"/>
<circle r="15.9357" transform="matrix(1 0 0 -1 16.8491 16.8394)" stroke="black" stroke-opacity="0.1" stroke-width="0.696801"/>
<path d="M13.7529 9.75303C13.5023 10.0036 13.4795 10.3957 13.6846 10.6721L13.7529 10.7512L19.8413 16.8399L13.7529 22.9286C13.5023 23.1792 13.4795 23.5713 13.6846 23.8476L13.7529 23.9268C14.0035 24.1774 14.3956 24.2001 14.6719 23.9951L14.7511 23.9268L21.3389 17.339C21.5895 17.0884 21.6122 16.6963 21.4072 16.42L21.3389 16.3408L14.7511 9.75303C14.4755 9.47738 14.0286 9.47738 13.7529 9.75303Z" fill="#0F1E0B"/>
</svg>
