<svg width="49" height="48" viewBox="0 0 49 48" fill="none" xmlns="http://www.w3.org/2000/svg">
<ellipse cx="24.5" cy="24" rx="24.5" ry="24" fill="white"/>
<path d="M48.5 24C48.5 36.969 37.7646 47.5 24.5 47.5C11.2354 47.5 0.5 36.969 0.5 24C0.5 11.031 11.2354 0.5 24.5 0.5C37.7646 0.5 48.5 11.031 48.5 24Z" stroke="black" stroke-opacity="0.1"/>
<path d="M30.4697 21.4697C30.7626 21.1768 31.2374 21.1768 31.5303 21.4697C31.8232 21.7626 31.8232 22.2374 31.5303 22.5303L30.4697 21.4697ZM25 28L25.5303 28.5303L25 29.0607L24.4697 28.5303L25 28ZM18.4697 22.5303C18.1768 22.2374 18.1768 21.7626 18.4697 21.4697C18.7626 21.1768 19.2374 21.1768 19.5303 21.4697L18.4697 22.5303ZM31.5303 22.5303L25.5303 28.5303L24.4697 27.4697L30.4697 21.4697L31.5303 22.5303ZM24.4697 28.5303L18.4697 22.5303L19.5303 21.4697L25.5303 27.4697L24.4697 28.5303Z" fill="#B7BCB6"/>
</svg>
