<svg width="150" height="150" viewBox="0 0 150 150" fill="none" xmlns="http://www.w3.org/2000/svg">
<g clip-path="url(#clip0)">
<path fill-rule="evenodd" clip-rule="evenodd" d="M74.9541 132.019C111.145 132.019 140.484 102.68 140.484 66.4889C140.484 30.2977 111.145 0.958984 74.9541 0.958984C38.7629 0.958984 9.42419 30.2977 9.42419 66.4889C9.42419 83.5549 15.948 99.0972 26.6377 110.758C27.9786 112.221 28.7857 114.109 28.7857 116.093V141.005C28.7857 146.496 34.5251 150.098 39.4696 147.711L71.9287 132.042C71.9473 132.033 71.947 132.006 71.9281 131.997C71.9035 131.986 71.9123 131.949 71.9392 131.951C72.9385 131.996 73.9436 132.019 74.9541 132.019Z" fill="#EB5757"/>
<path fill-rule="evenodd" clip-rule="evenodd" d="M68.2519 73.9357C68.2519 76.4033 70.2523 78.4037 72.7198 78.4037H77.1878C79.6554 78.4037 81.6557 76.4033 81.6557 73.9357L81.6557 41.1708C81.6557 38.7032 79.6554 36.7028 77.1878 36.7028H72.7198C70.2523 36.7028 68.2519 38.7032 68.2519 41.1708V73.9357ZM74.9539 96.2759C78.6553 96.2759 81.6559 93.2754 81.6559 89.574C81.6559 85.8726 78.6553 82.8721 74.9539 82.8721C71.2526 82.8721 68.252 85.8726 68.252 89.574C68.252 93.2754 71.2526 96.2759 74.9539 96.2759Z" fill="white"/>
</g>
<defs>
<clipPath id="clip0">
<rect width="148.932" height="148.932" fill="white" transform="translate(0.488281 0.958984)"/>
</clipPath>
</defs>
</svg>
