<svg width="19" height="19" viewBox="0 0 19 19" fill="none" xmlns="http://www.w3.org/2000/svg">
<g opacity="0.4">
<path fill-rule="evenodd" clip-rule="evenodd" d="M13.2485 1.7373C15.7903 1.7373 17.498 3.5208 17.498 6.1743V12.3003C17.498 14.9538 15.7903 16.7373 13.247 16.7373H6.74605C4.20505 16.7373 2.49805 14.9538 2.49805 12.3003V6.1743C2.49805 3.5208 4.20505 1.7373 6.74605 1.7373H13.2485ZM13.2485 2.8623H6.74605C4.8493 2.8623 3.62305 4.16205 3.62305 6.1743V12.3003C3.62305 14.3126 4.8493 15.6123 6.74605 15.6123H13.247C15.146 15.6123 16.373 14.3126 16.373 12.3003V6.1743C16.373 4.16205 15.146 2.8623 13.2485 2.8623ZM9.99355 8.67481C10.304 8.67481 10.556 8.92681 10.556 9.23731V12.2373C10.556 12.5478 10.304 12.7998 9.99355 12.7998C9.68305 12.7998 9.43105 12.5478 9.43105 12.2373V9.23731C9.43105 8.92681 9.68305 8.67481 9.99355 8.67481ZM9.99722 5.64038C10.412 5.64038 10.7472 5.97563 10.7472 6.39038C10.7472 6.80513 10.412 7.14038 9.99722 7.14038C9.58247 7.14038 9.24347 6.80513 9.24347 6.39038C9.24347 5.97563 9.57572 5.64038 9.98972 5.64038H9.99722Z" fill="#0F1E0B"/>
</g>
</svg>
