<svg width="24" height="25" viewBox="0 0 24 25" fill="none" xmlns="http://www.w3.org/2000/svg">
<path fill-rule="evenodd" clip-rule="evenodd" d="M19.3293 19.8976C19.6779 19.8976 19.9608 20.1805 19.9608 20.5292C19.9608 20.8778 19.6779 21.1607 19.3293 21.1607H13.2216C12.873 21.1607 12.59 20.8778 12.59 20.5292C12.59 20.1805 12.873 19.8976 13.2216 19.8976H19.3293ZM15.4269 5.76235C15.469 5.79519 16.8778 6.88991 16.8778 6.88991C17.3898 7.19474 17.7898 7.73958 17.9413 8.38462C18.0921 9.02292 17.9826 9.68144 17.6315 10.2381C17.6291 10.2418 17.6268 10.2454 17.6187 10.2564L17.6123 10.2648C17.5553 10.3399 17.3075 10.6532 16.057 12.22C16.0454 12.2405 16.0322 12.2598 16.0178 12.2784C15.9967 12.306 15.9738 12.3313 15.9493 12.3544C15.864 12.4618 15.7739 12.5746 15.6792 12.6933L15.4873 12.9336C15.0912 13.4296 14.6215 14.0177 14.0642 14.7153L13.7782 15.0733C12.7023 16.4199 11.3243 18.1441 9.55917 20.3524C9.17265 20.8341 8.59329 21.1145 7.97099 21.1221L4.90662 21.1608H4.8982C4.60599 21.1608 4.35168 20.9604 4.28347 20.6749L3.5938 17.752C3.45148 17.1466 3.59296 16.5217 3.98116 16.0367L11.9137 6.11518C11.917 6.11182 11.9196 6.10761 11.9229 6.10424C12.7928 5.06425 14.3658 4.91099 15.4269 5.76235ZM11.0292 9.24301L4.96725 16.8257C4.82325 17.0059 4.7702 17.2384 4.82325 17.4615L5.39671 19.8909L7.95583 19.8589C8.19919 19.8564 8.42403 19.7478 8.57308 19.5625C9.34063 18.6022 10.3053 17.3952 11.2971 16.1541L11.648 15.715L11.9995 15.2751C12.9297 14.111 13.8486 12.9609 14.6175 11.9982L11.0292 9.24301ZM12.8955 6.91012L11.8183 8.25608L15.4062 11.0105C16.0968 10.1455 16.5512 9.57575 16.5932 9.52144C16.7313 9.29745 16.7852 8.98082 16.7127 8.67598C16.6386 8.36357 16.4441 8.09831 16.1637 7.92905C16.1039 7.88779 14.685 6.78633 14.6412 6.7518C14.1073 6.32402 13.3284 6.39813 12.8955 6.91012Z" fill="black"/>
</svg>
