<svg width="38" height="38" viewBox="0 0 38 38" fill="none" xmlns="http://www.w3.org/2000/svg">
<circle cx="19.2109" cy="19.0198" r="18.7417" fill="#0F1E0B"/>
<path fill-rule="evenodd" clip-rule="evenodd" d="M23.2145 9.7146C24.7108 9.7146 26.0015 10.2143 26.946 11.1607C27.9333 12.1489 28.4749 13.5866 28.473 15.2094L28.4744 21.7199C28.476 21.7449 28.4763 21.77 28.4752 21.7951L28.473 22.7887C28.473 26.0744 26.3579 28.2826 23.2099 28.2826H15.1644C12.0192 28.2826 9.90594 26.0744 9.90594 22.7887V15.2085C9.90594 11.9228 12.0192 9.7146 15.1644 9.7146H23.2145ZM23.4719 19.7945C22.9247 19.7945 22.2827 20.6999 21.7141 21.4992C20.9343 22.5973 20.1275 23.7334 18.9123 23.7334C18.0906 23.7334 17.3378 23.4171 16.6743 23.137C15.6191 22.6922 15.1408 22.5498 14.6727 22.935C13.7358 23.7071 12.81 25.1131 12.3846 25.805C13.056 26.4972 14.0098 26.8868 15.1644 26.8868H23.2099C25.5595 26.8868 27.0772 25.2788 27.0772 22.7887L27.0772 22.0452L27.0557 22.0226C26.2411 21.1833 24.8345 19.7945 23.4719 19.7945ZM23.2145 11.1104H15.1644C12.8185 11.1104 11.3018 12.7193 11.3018 15.2085V22.7887C11.3018 23.4108 11.3964 23.9779 11.5751 24.4786C12.1136 23.6656 12.9268 22.5648 13.7859 21.8575C14.951 20.899 16.2053 21.4257 17.2159 21.851C17.8105 22.1013 18.3725 22.3376 18.9123 22.3376C19.4073 22.3376 20.028 21.4629 20.577 20.6915C21.3391 19.6158 22.2045 18.3987 23.4719 18.3987C24.8628 18.3987 26.1226 19.2534 27.0782 20.1017L27.0772 15.2085C27.079 13.9402 26.6919 12.8812 25.9587 12.147C25.2812 11.4687 24.333 11.1104 23.2145 11.1104ZM16.2867 13.6131C17.6183 13.614 18.7014 14.6972 18.7023 16.0278V16.0288C18.7023 17.3604 17.6192 18.4435 16.2867 18.4435C14.9541 18.4435 13.871 17.3604 13.871 16.0288C13.871 14.6962 14.9541 13.6131 16.2867 13.6131ZM16.2857 15.0089C15.7237 15.0089 15.2668 15.4658 15.2668 16.0288C15.2668 16.5908 15.7237 17.0477 16.2867 17.0477C16.8487 17.0477 17.3065 16.5908 17.3065 16.0297C17.3056 15.4667 16.8478 15.0098 16.2857 15.0089Z" fill="white"/>
</svg>
