<svg width="33" height="34" viewBox="0 0 33 34" fill="none" xmlns="http://www.w3.org/2000/svg">
<circle r="16.2841" transform="matrix(1 0 0 -1 16.6049 16.8394)" fill="white"/>
<circle r="15.9357" transform="matrix(1 0 0 -1 16.6049 16.8394)" stroke="black" stroke-opacity="0.1" stroke-width="0.696801"/>
<path d="M19.7012 9.75303C19.9518 10.0036 19.9745 10.3957 19.7695 10.6721L19.7012 10.7512L13.6128 16.8399L19.7012 22.9286C19.9518 23.1792 19.9745 23.5713 19.7695 23.8476L19.7012 23.9268C19.4506 24.1774 19.0585 24.2001 18.7821 23.9951L18.703 23.9268L12.1152 17.339C11.8646 17.0884 11.8418 16.6963 12.0468 16.42L12.1152 16.3408L18.703 9.75303C18.9786 9.47738 19.4255 9.47738 19.7012 9.75303Z" fill="#0F1E0B"/>
</svg>
