<svg xmlns="http://www.w3.org/2000/svg" xmlns:xlink="http://www.w3.org/1999/xlink" width="511.5" height="341" viewBox="0 0 511.5 341">
  <defs>
    <clipPath id="clip-path">
      <rect id="Rectangle_1" data-name="Rectangle 1" width="511.5" height="341" transform="translate(0 0.803)" fill="#fff"/>
    </clipPath>
  </defs>
  <g id="nohistoric" transform="translate(0 -0.803)" clip-path="url(#clip-path)">
    <path id="Path_1" data-name="Path 1" d="M159.436,94.944,82.915,146.131l75.373,112.676,76.52-51.188Z" transform="translate(-9.476 -10.759)" fill="#f5f5f5"/>
    <path id="Path_2" data-name="Path 2" d="M204.743,215.433l-.865,5.375-38.042-5.483.866-5.375Z" transform="translate(-18.953 -23.903)" fill="#e0e0e0"/>
    <path id="Path_3" data-name="Path 3" d="M187.353,194.5l5.456.785-6.049,37.455-5.463-.791Z" transform="translate(-20.72 -22.136)" fill="#e0e0e0"/>
    <path id="Path_4" data-name="Path 4" d="M144.165,140.751c.055.074-7.611,5.305-17.124,11.662s-17.269,11.458-17.323,11.375,7.611-5.305,17.124-11.668S144.077,140.669,144.165,140.751Z" transform="translate(-12.539 -15.994)" fill="#e0e0e0"/>
    <path id="Path_5" data-name="Path 5" d="M172.974,132.773c.054.081-12.7,8.7-28.481,19.259s-28.644,19.049-28.685,18.974,12.685-8.709,28.487-19.267S172.919,132.691,172.974,132.773Z" transform="translate(-13.235 -15.082)" fill="#e0e0e0"/>
    <path id="Path_6" data-name="Path 6" d="M179.341,142.29c.055.082-12.7,8.709-28.48,19.267s-28.644,19.048-28.685,18.966,12.7-8.7,28.487-19.266S179.287,142.208,179.341,142.29Z" transform="translate(-13.963 -16.17)" fill="#e0e0e0"/>
    <path id="Path_7" data-name="Path 7" d="M185.714,151.815c.055.082-12.7,8.709-28.48,19.26S128.59,190.13,128.59,190.048s12.692-8.709,28.48-19.266S185.659,151.733,185.714,151.815Z" transform="translate(-14.696 -17.258)" fill="#e0e0e0"/>
    <path id="Path_8" data-name="Path 8" d="M192.055,161.34c.055.082-12.7,8.7-28.48,19.26s-28.644,19.048-28.678,18.967,12.712-8.7,28.514-19.26S192.055,161.258,192.055,161.34Z" transform="translate(-15.417 -18.347)" fill="#e0e0e0"/>
    <path id="Path_9" data-name="Path 9" d="M449.911,180.185l-64.265,42.99,63.3,94.626,64.266-42.989Z" transform="translate(-44.074 -20.501)" fill="#f5f5f5"/>
    <path id="Path_10" data-name="Path 10" d="M487.967,281.4l-.73,4.514-31.951-4.6.736-4.514Z" transform="translate(-52.033 -31.542)" fill="#e0e0e0"/>
    <path id="Path_11" data-name="Path 11" d="M473.363,263.812l4.583.662-5.081,31.453-4.59-.662Z" transform="translate(-53.517 -30.058)" fill="#e0e0e0"/>
    <path id="Path_12" data-name="Path 12" d="M437.061,218.713c.054.081-6.377,4.481-14.37,9.821s-14.513,9.609-14.568,9.548,6.384-4.474,14.37-9.821S437.006,218.6,437.061,218.713Z" transform="translate(-46.643 -24.904)" fill="#e0e0e0"/>
    <path id="Path_13" data-name="Path 13" d="M461.285,211.975c.054.082-10.646,7.338-23.87,16.2s-24.048,15.992-24.1,15.911,10.645-7.338,23.87-16.2S461.21,211.893,461.285,211.975Z" transform="translate(-47.236 -24.134)" fill="#e0e0e0"/>
    <path id="Path_14" data-name="Path 14" d="M466.636,219.968c.055.081-10.646,7.338-23.87,16.2s-24.047,15.986-24.1,15.9,10.612-7.3,23.87-16.17S466.6,219.893,466.636,219.968Z" transform="translate(-47.847 -25.047)" fill="#e0e0e0"/>
    <path id="Path_15" data-name="Path 15" d="M471.98,227.953c.054.081-10.653,7.338-23.87,16.2s-24.047,15.986-24.1,15.9,10.646-7.331,23.87-16.2S471.932,227.885,471.98,227.953Z" transform="translate(-48.458 -25.96)" fill="#e0e0e0"/>
    <path id="Path_16" data-name="Path 16" d="M477.37,235.969c.055.081-10.646,7.331-23.87,16.2s-24.047,15.986-24.1,15.911,10.646-7.338,23.87-16.2S477.281,235.887,477.37,235.969Z" transform="translate(-49.074 -26.876)" fill="#e0e0e0"/>
    <path id="Path_17" data-name="Path 17" d="M327.24,94.785l-70.122-37.5L201.894,160.532l70.122,37.5Z" transform="translate(-23.074 -6.455)" fill="#f5f5f5"/>
    <path id="Path_18" data-name="Path 18" d="M265.483,175.7l-4.447,1.521L249.742,146l4.453-1.528Z" transform="translate(-28.542 -16.42)" fill="#e0e0e0"/>
    <path id="Path_19" data-name="Path 19" d="M271.213,154.441l1.623,4.481-31,10.619-1.624-4.481Z" transform="translate(-27.452 -17.559)" fill="#e0e0e0"/>
    <path id="Path_20" data-name="Path 20" d="M296.011,100.265c-.055.1-7.161-3.594-15.884-8.252s-15.74-8.525-15.686-8.627,7.168,3.594,15.891,8.252S296.065,100.156,296.011,100.265Z" transform="translate(-30.222 -9.438)" fill="#e0e0e0"/>
    <path id="Path_21" data-name="Path 21" d="M312.33,119.795c-.054.1-11.825-6.09-26.291-13.824S259.9,91.881,259.952,91.778s11.819,6.083,26.284,13.824S312.384,119.692,312.33,119.795Z" transform="translate(-29.709 -10.397)" fill="#e0e0e0"/>
    <path id="Path_22" data-name="Path 22" d="M307.664,128.519c-.055.1-11.826-6.083-26.292-13.824S255.231,100.6,255.286,100.5s11.819,6.09,26.284,13.824S307.718,128.417,307.664,128.519Z" transform="translate(-29.176 -11.394)" fill="#e0e0e0"/>
    <path id="Path_23" data-name="Path 23" d="M303,137.244c-.055.1-11.826-6.083-26.292-13.817s-26.141-14.07-26.086-14.193,11.819,6.084,26.284,13.817S303.052,137.142,303,137.244Z" transform="translate(-28.642 -12.392)" fill="#e0e0e0"/>
    <path id="Path_24" data-name="Path 24" d="M298.331,145.968c-.054.1-11.825-6.083-26.291-13.817s-26.148-14.09-26.087-14.193,11.819,6.084,26.284,13.818S298.385,145.866,298.331,145.968Z" transform="translate(-28.109 -13.389)" fill="#e0e0e0"/>
    <path id="Path_25" data-name="Path 25" d="M305.271.8h-1.76V30.8h1.76Z" transform="translate(-34.687 0)" opacity="0.2"/>
    <path id="Path_26" data-name="Path 26" d="M258.127,70.958h82.154s-7.583-36.276-41.7-36.276C268.241,34.683,258.127,70.958,258.127,70.958Z" transform="translate(-29.5 -3.872)" fill="#98c2e2"/>
    <path id="Path_27" data-name="Path 27" d="M305.27.8h-1.759V30.8h1.759Z" transform="translate(-34.687 0)" fill="#98c2e2"/>
    <path id="Path_28" data-name="Path 28" d="M460.22,339.449c0,.1-88.149.177-196.866.177s-196.88-.061-196.88-.177,88.135-.177,196.88-.177S460.22,339.347,460.22,339.449Z" transform="translate(-7.597 -38.682)" fill="#263238"/>
    <path id="Path_29" data-name="Path 29" d="M90.755,291.246a8.612,8.612,0,0,1,5.988,3.069,15.106,15.106,0,0,1,3.048,6.138c1.153,4.311.444,9.4-.784,13.695-4.665-1.671-7.55-6.65-8.866-9.268-2.046-4.134-3.267-12.863.593-13.64" transform="translate(-10.082 -33.193)" fill="#ddeffd"/>
    <path id="Path_30" data-name="Path 30" d="M107.834,321.414a7.322,7.322,0,0,1-.341-7.351,9.72,9.72,0,0,1,5.865-4.713,4.083,4.083,0,0,1,3.451.164,3.124,3.124,0,0,1,1.207,2.94,6.325,6.325,0,0,1-1.364,3.014c-2.271,3.076-5.026,5.633-8.866,5.947" transform="translate(-12.19 -35.228)" fill="#ddeffd"/>
    <path id="Path_31" data-name="Path 31" d="M108.4,336.5a4.365,4.365,0,0,1-.212-.893c-.123-.641-.286-1.467-.484-2.455a25.784,25.784,0,0,1-.5-8.259,15.693,15.693,0,0,1,3.063-7.645,10.413,10.413,0,0,1,1.766-1.794,6.293,6.293,0,0,1,.559-.4.79.79,0,0,1,.2-.123,17.319,17.319,0,0,0-2.352,2.448,16.28,16.28,0,0,0-2.919,7.557,27.759,27.759,0,0,0,.416,8.184c.164,1.043.3,1.889.376,2.476A5.683,5.683,0,0,1,108.4,336.5Z" transform="translate(-12.236 -35.9)" fill="#263238"/>
    <path id="Path_32" data-name="Path 32" d="M92.777,298.662a1.572,1.572,0,0,1,.191.348c.123.273.286.614.477,1.043.416.907,1,2.223,1.7,3.853,1.4,3.267,3.287,7.809,5.251,12.869s3.635,9.678,4.774,13.04c.586,1.678,1.043,3.042,1.364,3.989.143.45.252.811.341,1.091a1.8,1.8,0,0,1,.1.389,1.694,1.694,0,0,1-.164-.368c-.1-.273-.232-.627-.4-1.071l-1.439-3.956c-1.221-3.335-2.926-7.945-4.883-13s-3.813-9.609-5.163-12.9c-.682-1.616-1.207-2.933-1.6-3.894-.177-.437-.321-.785-.43-1.064A2.412,2.412,0,0,1,92.777,298.662Z" transform="translate(-10.603 -34.041)" fill="#263238"/>
    <path id="Path_33" data-name="Path 33" d="M100.093,327.445a17.172,17.172,0,0,0-13.313-8.273c-1.364-.1-3.042.136-3.656,1.364s.2,2.728,1.146,3.724a14.656,14.656,0,0,0,15.87,3.546" transform="translate(-9.476 -36.383)" fill="#ddeffd"/>
    <path id="Path_34" data-name="Path 34" d="M89.651,323.348a4.8,4.8,0,0,1,.866.034,8.28,8.28,0,0,1,1,.116c.389.075.846.116,1.323.252a13.119,13.119,0,0,1,1.575.437,15.53,15.53,0,0,1,1.753.682,18.984,18.984,0,0,1,3.7,2.189,18.644,18.644,0,0,1,3.055,3.028,15.3,15.3,0,0,1,1.071,1.535,15.014,15.014,0,0,1,.805,1.425,11.955,11.955,0,0,1,.546,1.228,7.784,7.784,0,0,1,.347.955,4.653,4.653,0,0,1,.225.839c-.074,0-.4-1.173-1.322-2.918a14.805,14.805,0,0,0-.825-1.364,16.993,16.993,0,0,0-1.078-1.494,18.184,18.184,0,0,0-6.642-5.128c-.593-.26-1.159-.5-1.712-.682a14.745,14.745,0,0,0-1.548-.47C90.878,323.485,89.644,323.423,89.651,323.348Z" transform="translate(-10.246 -36.862)" fill="#263238"/>
    <path id="Path_35" data-name="Path 35" d="M437.859,81.839c-2.005.457-2.98,2.769-3.171,4.815s.068,4.215-.792,6.083c-.968,2.1-3.28,3.656-3.355,5.967-.048,1.412.791,2.728.75,4.154-.068,2.319-2.428,4.092-2.558,6.383-.089,1.67,1.024,3.267.757,4.917-.2,1.282-1.207,2.291-1.63,3.519-.839,2.455.846,5.149,3.034,6.527a9.951,9.951,0,0,0,14.493-4.624c1.214-2.946.948-6.267.682-9.439q-1.228-14.84-1.828-29.721" transform="translate(-48.873 -9.099)" fill="#263238"/>
    <path id="Path_36" data-name="Path 36" d="M432.6,117.024a2.331,2.331,0,0,0,.92-1.085,3.943,3.943,0,0,0,.232-1.67,9.161,9.161,0,0,0-.5-2.2,6.35,6.35,0,0,1-.355-2.8,6.427,6.427,0,0,1,1.624-2.8,5.945,5.945,0,0,0,.92-1.4,2.255,2.255,0,0,0,.11-1.637c-.355-1.112-1.446-1.93-1.944-3.219a3.413,3.413,0,0,1-.109-1.992,7.913,7.913,0,0,1,.682-1.78,15.282,15.282,0,0,0,1.364-3.212c.477-2.162.252-4.228.579-5.927a6.56,6.56,0,0,1,1.726-3.628,3.951,3.951,0,0,1,.9-.682,1.418,1.418,0,0,1,.361-.13,5.24,5.24,0,0,0-1.166.873,6.67,6.67,0,0,0-1.575,3.581,22.3,22.3,0,0,0-.191,2.728,16.788,16.788,0,0,1-.314,3.2,15.335,15.335,0,0,1-1.364,3.287,4.5,4.5,0,0,0-.532,3.5c.45,1.173,1.535,1.985,1.95,3.239a2.644,2.644,0,0,1-.129,1.876,6.441,6.441,0,0,1-1.023,1.534,6.481,6.481,0,0,0-1.589,2.633,6.138,6.138,0,0,0,.314,2.68,9.262,9.262,0,0,1,.45,2.264,3.824,3.824,0,0,1-.306,1.732,2.089,2.089,0,0,1-.682.859A1.085,1.085,0,0,1,432.6,117.024Z" transform="translate(-49.44 -9.379)" fill="#455a64"/>
    <path id="Path_37" data-name="Path 37" d="M421.923,139.687l-6.138,17.732-25.671,1.364-4.282,9.548,26.8,2.728a10.128,10.128,0,0,0,13.38-5.954l7.154-19.968Z" transform="translate(-44.095 -15.872)" fill="#b78876"/>
    <path id="Path_38" data-name="Path 38" d="M480.339,313.415s-18.81-59.757-19.212-61.694c-.361-1.759,6.82-44.76,7.734-55.924l-25.418.949V197l-10.8.6,9.671,122.16h11.7l-1.159-40.545a395.536,395.536,0,0,0,17.555,39.1Z" transform="translate(-49.445 -22.285)" fill="#b78876"/>
    <path id="Path_39" data-name="Path 39" d="M455.41,303.07c0-.368-.143-13.585-.143-13.585-.144.791-4.481-11.472-4.379-12.215C450.944,276.882,455.41,303.07,455.41,303.07Z" transform="translate(-51.53 -31.596)" fill="#a36957"/>
    <path id="Path_40" data-name="Path 40" d="M450.321,270.711a2.656,2.656,0,0,0-.074.743,18.333,18.333,0,0,0,0,2.046,13.515,13.515,0,0,0,.116,1.4,15.988,15.988,0,0,0,.245,1.589,28.119,28.119,0,0,0,.962,3.56c.845,2.476,1.786,4.638,2.448,6.206.314.682.586,1.329.818,1.848a2.94,2.94,0,0,0,.341.682,2.58,2.58,0,0,0-.2-.682c-.157-.451-.4-1.1-.682-1.9-.6-1.6-1.5-3.778-2.339-6.227a29.443,29.443,0,0,1-.975-3.506c-.123-.546-.2-1.071-.28-1.561s-.129-.955-.164-1.364c-.082-.846-.116-1.528-.136-2.005A3.059,3.059,0,0,0,450.321,270.711Z" transform="translate(-51.453 -30.847)" fill="#a36957"/>
    <path id="Path_41" data-name="Path 41" d="M442.274,336.244v-1.1l11.983-.524.035,4.535-.737.048c-3.294.191-16.743.75-18.939.089C432.154,338.556,442.274,336.244,442.274,336.244Z" transform="translate(-49.626 -38.151)" fill="#455a64"/>
    <path id="Path_42" data-name="Path 42" d="M454.446,339.433a1.589,1.589,0,0,1-.2,0l-.586.041-2.168.1c-1.828.075-4.359.143-7.148.157s-5.327-.034-7.161-.089l-2.162-.089h-.8a1.316,1.316,0,0,1,.2,0h.593l2.169.041c1.827,0,4.358.055,7.147.041s5.327-.061,7.155-.109l2.168-.054h.791Z" transform="translate(-49.625 -38.701)" fill="#263238"/>
    <path id="Path_43" data-name="Path 43" d="M438.751,339.625a5.182,5.182,0,0,0-.409-1.029,4.911,4.911,0,0,0-.743-.826,1.582,1.582,0,0,1,.866.75A1.632,1.632,0,0,1,438.751,339.625Z" transform="translate(-50.011 -38.511)" fill="#263238"/>
    <path id="Path_44" data-name="Path 44" d="M442.807,337.711a2.682,2.682,0,0,1-.376-.457c-.177-.273-.286-.511-.252-.531s.2.177.376.45S442.841,337.691,442.807,337.711Z" transform="translate(-50.534 -38.391)" fill="#263238"/>
    <path id="Path_45" data-name="Path 45" d="M443.885,337.206c0,.035-.218-.095-.422-.279s-.355-.355-.328-.383.218.1.422.28S443.912,337.145,443.885,337.206Z" transform="translate(-50.644 -38.37)" fill="#263238"/>
    <path id="Path_46" data-name="Path 46" d="M444.506,335.973a1.438,1.438,0,0,1-.627.082,1.368,1.368,0,0,1-.621-.062,1.424,1.424,0,0,1,.621-.081A1.358,1.358,0,0,1,444.506,335.973Z" transform="translate(-50.658 -38.297)" fill="#263238"/>
    <path id="Path_47" data-name="Path 47" d="M444.722,335.09a1.259,1.259,0,0,1-.682.2,1.287,1.287,0,0,1-.682-.095,3.909,3.909,0,0,1,.682-.055A3.587,3.587,0,0,1,444.722,335.09Z" transform="translate(-50.669 -38.204)" fill="#263238"/>
    <path id="Path_48" data-name="Path 48" d="M442.144,336.525a2.087,2.087,0,0,1-.771,0,4.447,4.447,0,0,1-.811-.177,2.238,2.238,0,0,1-.47-.191.425.425,0,0,1-.191-.238.3.3,0,0,1,.012-.171.3.3,0,0,1,.1-.136,1.417,1.417,0,0,1,1.213-.011,1.418,1.418,0,0,1,.778.932.5.5,0,0,1,0,.2,2.177,2.177,0,0,0-.354-.682,1.4,1.4,0,0,0-.682-.423,1.217,1.217,0,0,0-.914.068c-.116.089-.068.232.061.314a2.479,2.479,0,0,0,.437.184,5.853,5.853,0,0,0,.785.2C441.85,336.5,442.144,336.5,442.144,336.525Z" transform="translate(-50.273 -38.248)" fill="#263238"/>
    <path id="Path_49" data-name="Path 49" d="M442.2,336.515a.725.725,0,0,1-.1-.532,1.264,1.264,0,0,1,.212-.559.779.779,0,0,1,.634-.4.314.314,0,0,1,.238.355.809.809,0,0,1-.129.341,2.824,2.824,0,0,1-.361.47,1.122,1.122,0,0,1-.437.306,4.658,4.658,0,0,0,.361-.382,2.6,2.6,0,0,0,.321-.457c.1-.164.177-.457,0-.491s-.382.177-.5.328a1.245,1.245,0,0,0-.218.5A2.358,2.358,0,0,0,442.2,336.515Z" transform="translate(-50.524 -38.197)" fill="#263238"/>
    <path id="Path_50" data-name="Path 50" d="M456.227,335.741s-.341,0-.88.035a3.776,3.776,0,0,0-3.116,2.5c-.178.511-.191.859-.219.852s0-.089,0-.238a3.047,3.047,0,0,1,.123-.648,3.732,3.732,0,0,1,1.2-1.78,3.675,3.675,0,0,1,2-.784,2.833,2.833,0,0,1,.682,0A.876.876,0,0,1,456.227,335.741Z" transform="translate(-51.657 -38.269)" fill="#263238"/>
    <path id="Path_51" data-name="Path 51" d="M449.846,338.353a6.694,6.694,0,0,1-1.746.17,6.383,6.383,0,0,1-1.74-.15c0-.041.778,0,1.74,0S449.839,338.312,449.846,338.353Z" transform="translate(-51.013 -38.576)" fill="#263238"/>
    <path id="Path_52" data-name="Path 52" d="M452.886,338.331s-.062.164-.143.341-.123.341-.164.334-.061-.183.035-.4S452.858,338.3,452.886,338.331Z" transform="translate(-51.719 -38.574)" fill="#263238"/>
    <path id="Path_53" data-name="Path 53" d="M453.864,337.091a.758.758,0,0,1-.171.273c-.122.122-.245.2-.279.177s.047-.15.17-.28S453.829,337.056,453.864,337.091Z" transform="translate(-51.818 -38.432)" fill="#263238"/>
    <path id="Path_54" data-name="Path 54" d="M455.251,336.513c0,.041-.163.041-.341.1s-.3.157-.334.129.068-.191.287-.266S455.265,336.473,455.251,336.513Z" transform="translate(-51.951 -38.359)" fill="#263238"/>
    <path id="Path_55" data-name="Path 55" d="M456.3,336.242c0,.041-.048.1-.15.136s-.191.041-.2,0,.054-.1.15-.136S456.289,336.208,456.3,336.242Z" transform="translate(-52.108 -38.333)" fill="#263238"/>
    <path id="Path_56" data-name="Path 56" d="M474.2,334.436l-.45-1,10.714-5.382,1.889,4.092-.682.348c-2.926,1.521-14.963,7.537-17.241,7.836C465.913,340.689,474.2,334.436,474.2,334.436Z" transform="translate(-53.48 -37.4)" fill="#455a64"/>
    <path id="Path_57" data-name="Path 57" d="M486.4,332.342l-.177.109-.525.273-1.937.982c-1.637.811-3.915,1.91-6.459,3.069s-4.877,2.148-6.568,2.85l-2.012.811-.546.212a.776.776,0,0,1-.2.061l.184-.089.538-.238,1.992-.853c1.685-.723,4-1.732,6.547-2.891s4.828-2.237,6.479-3.028l1.95-.934.539-.252Z" transform="translate(-53.483 -37.89)" fill="#263238"/>
    <path id="Path_58" data-name="Path 58" d="M472.177,340.014a5.1,5.1,0,0,0-.8-.778,4.759,4.759,0,0,0-1.017-.45,1.916,1.916,0,0,1,1.815,1.228Z" transform="translate(-53.756 -38.627)" fill="#263238"/>
    <path id="Path_59" data-name="Path 59" d="M475.064,336.608a2.414,2.414,0,0,1-.532-.259c-.273-.177-.47-.347-.45-.382s.259.082.531.26S475.084,336.574,475.064,336.608Z" transform="translate(-54.181 -38.304)" fill="#263238"/>
    <path id="Path_60" data-name="Path 60" d="M475.822,335.713c0,.034-.232,0-.5-.082s-.464-.184-.457-.225a1.018,1.018,0,0,1,.5.082C475.63,335.549,475.835,335.645,475.822,335.713Z" transform="translate(-54.27 -38.24)" fill="#263238"/>
    <path id="Path_61" data-name="Path 61" d="M475.907,334.274a1.588,1.588,0,0,1-.539.334,1.442,1.442,0,0,1-.593.2,1.6,1.6,0,0,1,.532-.335,1.485,1.485,0,0,1,.6-.2Z" transform="translate(-54.26 -38.111)" fill="#263238"/>
    <path id="Path_62" data-name="Path 62" d="M475.74,333.365a1.863,1.863,0,0,1-.553.47,1.185,1.185,0,0,1-.682.2,3.584,3.584,0,0,1,.621-.334C475.46,333.522,475.705,333.331,475.74,333.365Z" transform="translate(-54.229 -38.007)" fill="#263238"/>
    <path id="Path_63" data-name="Path 63" d="M474.02,335.751a2.21,2.21,0,0,1-.682.314,5.369,5.369,0,0,1-.818.171,2.091,2.091,0,0,1-.5,0,.406.406,0,0,1-.273-.136.3.3,0,0,1,0-.328,1.406,1.406,0,0,1,1.753-.341,1.366,1.366,0,0,1,.437.361c.081.109.116.177.109.184a2.058,2.058,0,0,0-.593-.457,1.365,1.365,0,0,0-.771-.116,1.2,1.2,0,0,0-.805.437c-.074.129,0,.239.184.26a2.792,2.792,0,0,0,.471,0,5.387,5.387,0,0,0,.8-.143C473.72,335.846,474.02,335.73,474.02,335.751Z" transform="translate(-53.908 -38.224)" fill="#263238"/>
    <path id="Path_64" data-name="Path 64" d="M474.058,335.73a.758.758,0,0,1-.3-.45,1.284,1.284,0,0,1-.042-.593.771.771,0,0,1,.423-.621c.17-.054.566.293.593.423s-.2.061-.212.17a2.389,2.389,0,0,1-.136.566,1.062,1.062,0,0,1-.273.464,5.037,5.037,0,0,0,.177-.492,3.544,3.544,0,0,0,.1-.552c0-.191,0-.484-.219-.437s-.279.314-.327.5a1.177,1.177,0,0,0,0,.539A2.939,2.939,0,0,0,474.058,335.73Z" transform="translate(-54.137 -38.087)" fill="#263238"/>
    <path id="Path_65" data-name="Path 65" d="M486.648,329.1a4.842,4.842,0,0,0-.791.4,3.715,3.715,0,0,0-1.814,3.561c.041.546.17.859.143.872a.858.858,0,0,1-.1-.218,3.458,3.458,0,0,1-.143-.641,3.607,3.607,0,0,1,1.862-3.655,3.239,3.239,0,0,1,.607-.26A.859.859,0,0,1,486.648,329.1Z" transform="translate(-55.304 -37.52)" fill="#263238"/>
    <path id="Path_66" data-name="Path 66" d="M481.75,334.136a9.736,9.736,0,0,1-3.172,1.446c0-.041.717-.314,1.589-.682S481.729,334.1,481.75,334.136Z" transform="translate(-54.695 -38.095)" fill="#263238"/>
    <path id="Path_67" data-name="Path 67" d="M484.535,333.035c.035,0,0,.17,0,.368v.376a.56.56,0,0,1-.136-.376C484.4,333.177,484.5,333.013,484.535,333.035Z" transform="translate(-55.36 -37.969)" fill="#263238"/>
    <path id="Path_68" data-name="Path 68" d="M484.916,331.494c.035,0,0,.158-.041.321s-.143.287-.177.273,0-.157.041-.321S484.875,331.481,484.916,331.494Z" transform="translate(-55.392 -37.793)" fill="#263238"/>
    <path id="Path_69" data-name="Path 69" d="M485.941,330.362c0,.041-.136.1-.273.232s-.212.266-.245.252,0-.2.15-.361A.449.449,0,0,1,485.941,330.362Z" transform="translate(-55.475 -37.664)" fill="#263238"/>
    <path id="Path_70" data-name="Path 70" d="M486.781,329.73a.274.274,0,0,1-.081.184c-.082.075-.157.116-.184.089s0-.109.081-.184S486.754,329.7,486.781,329.73Z" transform="translate(-55.601 -37.591)" fill="#263238"/>
    <path id="Path_71" data-name="Path 71" d="M465.719,166.841l-1.991-24.347,10.23.184s.47-3.594-1.037-11.465c-.927-4.828-4.139-7.788-7.747-9.548V121.6l-.314-.081a29.182,29.182,0,0,0-9.384-2.448l-12.583.143s-9.609-1.228-14.908,5.654c-2.046,2.639-8.4,20.705-8.4,20.705l15.107,7.27-1.412-10.018s.286,7.263,1.214,9.548c.511,1.282,2.046,5.265,2.046,5.265l-.2,12.016Z" transform="translate(-47.953 -13.516)" fill="#ddeffd"/>
    <path id="Path_72" data-name="Path 72" d="M463.6,140.833l-1.869,7.952h17.616l-1.159-13.34Z" transform="translate(-52.769 -15.388)" fill="#ddeffd"/>
    <path id="Path_73" data-name="Path 73" d="M479.561,150.456a14.118,14.118,0,0,0-2.333-.231c-1.445-.082-3.41-.158-5.646-.143s-4.208.109-5.654.218a13.337,13.337,0,0,0-2.325.287,14.808,14.808,0,0,0,2.345,0c1.439-.048,3.41-.1,5.634-.109s4.194,0,5.639.034A14.749,14.749,0,0,0,479.561,150.456Z" transform="translate(-52.983 -17.06)" fill="#263238"/>
    <path id="Path_74" data-name="Path 74" d="M462.968,135.375a10.677,10.677,0,0,0-.055,2.046c0,1.248.055,2.966.13,4.87s.164,3.628.245,4.869a10.172,10.172,0,0,0,.218,2.046,10.6,10.6,0,0,0,.055-2.046c0-1.248-.055-2.973-.129-4.876s-.164-3.622-.246-4.87A9.983,9.983,0,0,0,462.968,135.375Z" transform="translate(-52.901 -15.38)" fill="#263238"/>
    <g id="Group_1" data-name="Group 1" transform="translate(394.039 126.884)" opacity="0.3">
      <path id="Path_75" data-name="Path 75" d="M444.883,143.152s3.915,29.033,14.922,28.262c0,0,4.958-.054,6.547-3.349v-1.3Z" transform="translate(-444.883 -143.152)" opacity="0.3"/>
    </g>
    <g id="Group_2" data-name="Group 2" transform="translate(407.959 121.707)" opacity="0.3">
      <path id="Path_76" data-name="Path 76" d="M462.706,137.308,460.6,151.541l1.364,2.5,2.251-4.883-.955-.027Z" transform="translate(-460.599 -137.308)" opacity="0.3"/>
    </g>
    <path id="Path_77" data-name="Path 77" d="M438.2,160.249a2.776,2.776,0,0,1-.3-.682c-.17-.444-.4-1.091-.682-1.9a58.608,58.608,0,0,1-1.684-6.445,45.584,45.584,0,0,1-.833-6.608c-.041-.853-.054-1.541-.041-2.046a2.706,2.706,0,0,1,.048-.737c.054,0,.1,1.05.238,2.728a60.767,60.767,0,0,0,.934,6.554c.5,2.537,1.112,4.808,1.576,6.438.218.756.4,1.4.553,1.936a3.344,3.344,0,0,1,.19.764Z" transform="translate(-49.675 -16.117)" fill="#263238"/>
    <path id="Path_78" data-name="Path 78" d="M443.569,171.673a3.512,3.512,0,0,1-.607-1.364,3.28,3.28,0,0,1-.267-1.5,3.558,3.558,0,0,1,.608,1.4,3.414,3.414,0,0,1,.266,1.467Z" transform="translate(-50.593 -19.201)" fill="#263238"/>
    <path id="Path_79" data-name="Path 79" d="M445.347,171.371a6.273,6.273,0,0,1-.061-4.256,14.2,14.2,0,0,1,0,2.127A13.99,13.99,0,0,1,445.347,171.371Z" transform="translate(-50.851 -19.007)" fill="#263238"/>
    <path id="Path_80" data-name="Path 80" d="M434.985,156.571c-.048.082-3.561-1.582-7.85-3.724s-7.734-3.956-7.693-4.044,3.561,1.582,7.85,3.724S435.026,156.483,434.985,156.571Z" transform="translate(-47.936 -16.914)" fill="#263238"/>
    <path id="Path_81" data-name="Path 81" d="M443.3,117.584c.075-3.451.1-7.08.1-7.08s-4.426-.852-5.2-6.677c-.737-5.552,1.322-18.585,1.322-18.585,6.466-2.442,13.184-.225,17.61,5.013l-1.1,28.01a6.017,6.017,0,0,1-6.506,5.572A6.357,6.357,0,0,1,443.3,117.584Z" transform="translate(-50.062 -9.537)" fill="#b78876"/>
    <path id="Path_82" data-name="Path 82" d="M439.331,97.041a.751.751,0,0,0,.682.771.717.717,0,0,0,.715-.4.731.731,0,0,0,.07-.28.744.744,0,0,0-.682-.764.683.683,0,0,0-.547.157.682.682,0,0,0-.237.518Z" transform="translate(-50.209 -10.921)" fill="#263238"/>
    <path id="Path_83" data-name="Path 83" d="M439.021,95.932c.089.1.682-.307,1.467-.28s1.364.436,1.46.341-.042-.218-.294-.416a2.044,2.044,0,0,0-1.173-.389,1.918,1.918,0,0,0-1.166.341C439.063,95.714,438.974,95.885,439.021,95.932Z" transform="translate(-50.172 -10.787)" fill="#263238"/>
    <path id="Path_84" data-name="Path 84" d="M448.5,97.611a.743.743,0,0,0,.682.771.683.683,0,0,0,.785-.682.737.737,0,0,0-.682-.764.682.682,0,0,0-.785.675Z" transform="translate(-51.257 -10.986)" fill="#263238"/>
    <path id="Path_85" data-name="Path 85" d="M448.44,96.5c.089.1.681-.3,1.466-.28s1.364.436,1.467.341-.048-.218-.3-.409a1.958,1.958,0,0,0-1.166-.4,1.983,1.983,0,0,0-1.173.341C448.487,96.284,448.4,96.454,448.44,96.5Z" transform="translate(-51.249 -10.852)" fill="#263238"/>
    <path id="Path_86" data-name="Path 86" d="M444.731,102.354a5.141,5.141,0,0,0-1.3-.267c-.2,0-.4-.074-.423-.211a.993.993,0,0,1,.15-.608l.641-1.534A26.688,26.688,0,0,0,445.27,95.7a27.058,27.058,0,0,0-1.786,3.907c-.212.539-.422,1.058-.621,1.548a1.2,1.2,0,0,0-.122.8.505.505,0,0,0,.327.314,1.406,1.406,0,0,0,.348.055A5.2,5.2,0,0,0,444.731,102.354Z" transform="translate(-50.596 -10.845)" fill="#263238"/>
    <path id="Path_87" data-name="Path 87" d="M444.09,113.65a14.765,14.765,0,0,0,7.816-1.875s-1.985,3.935-7.775,3.246Z" transform="translate(-50.753 -12.683)" fill="#a36957"/>
    <path id="Path_88" data-name="Path 88" d="M450.971,93.83c-.164.252-.778.143-1.46,0s-1.283-.259-1.364-.552.634-.682,1.548-.5S451.134,93.612,450.971,93.83Z" transform="translate(-51.216 -10.506)" fill="#263238"/>
    <path id="Path_89" data-name="Path 89" d="M441.966,92.582c-.062.293-.717.4-1.467.436s-1.412,0-1.5-.3.546-.723,1.453-.764S442.027,92.3,441.966,92.582Z" transform="translate(-50.17 -10.417)" fill="#263238"/>
    <path id="Path_90" data-name="Path 90" d="M444.941,105.371a.395.395,0,0,0-.443.2.456.456,0,0,0-.058.228.465.465,0,0,0,.063.227.459.459,0,0,0,.167.165.459.459,0,1,0,.4-.824.46.46,0,0,0-.3-.02" transform="translate(-50.793 -11.946)" fill="#a36957"/>
    <path id="Path_91" data-name="Path 91" d="M445.093,105.447c0-.035-.129-.232-.477-.157a.608.608,0,0,0-.275.156.62.62,0,0,0-.161.274.658.658,0,0,0,1.01.723.572.572,0,0,0,.245-.566c-.068-.361-.334-.416-.348-.368s.1.171.075.382a.319.319,0,0,1-.164.252.344.344,0,0,1-.347,0,.353.353,0,0,1-.105-.151.359.359,0,0,1-.018-.183.325.325,0,0,1,.061-.149.332.332,0,0,1,.123-.1C444.9,105.439,445.072,105.494,445.093,105.447Z" transform="translate(-50.76 -11.939)" fill="#263238"/>
    <path id="Path_92" data-name="Path 92" d="M454.641,96.513c-.682,1.6-2.373,2.83-2.141,4.555.15,1.112.865,2.149.729,3.267-.177,1.364-1.63,2.373-1.841,3.771-.252,1.712,1.419,3.042,2.081,4.638.975,2.332-.266,4.951-.3,7.5a8.006,8.006,0,0,0,7.093,7.788,4.259,4.259,0,0,0,4.092-1.678c.682-1.1.532-2.51.927-3.731.6-1.827,2.339-3.165,2.728-5.047.682-3.41-3.478-6.274-3.205-9.766.116-1.494,1.037-2.79,1.426-4.235a6.223,6.223,0,0,0-1.214-5.517c-1.03-1.221-2.516-2.046-3.41-3.356-.988-1.507-1.023-3.41-1.364-5.19a13.081,13.081,0,0,0-20.774-7.659s-.989,4.494,3.628,5.251,6.752-.116,7.27,1.732a4.887,4.887,0,0,0,1.364,4.222C453.611,95.094,455.4,94.658,454.641,96.513Z" transform="translate(-50.215 -8.953)" fill="#263238"/>
    <path id="Path_93" data-name="Path 93" d="M463.9,129.306a1.66,1.66,0,0,1-.423-.042,6.642,6.642,0,0,1-1.173-.321,8.323,8.323,0,0,1-3.574-2.639,9.439,9.439,0,0,1-1.514-2.728,10.807,10.807,0,0,1-.621-3.5,14.441,14.441,0,0,1,.491-3.894,16.671,16.671,0,0,1,.682-1.972,20.283,20.283,0,0,0,.744-1.957,3.656,3.656,0,0,0,0-2.005,11.128,11.128,0,0,0-.771-1.869,12.313,12.313,0,0,1-.8-1.848,3.989,3.989,0,0,1-.143-1.957,13.9,13.9,0,0,1,1.514-3.212,6.075,6.075,0,0,0,.614-2.906,6.854,6.854,0,0,0-1.521-4.024,12,12,0,0,0-1.152-1.125,4.66,4.66,0,0,1,1.261,1.037,6.815,6.815,0,0,1,1.664,4.092,6.3,6.3,0,0,1-.6,3.042,14.058,14.058,0,0,0-1.46,3.143,5.819,5.819,0,0,0,.927,3.594,10.665,10.665,0,0,1,.805,1.93,4.024,4.024,0,0,1,0,2.182,21.5,21.5,0,0,1-.785,2.026,16,16,0,0,0-.682,1.93,14.081,14.081,0,0,0-.5,3.8,9.859,9.859,0,0,0,2.005,6.057,8.37,8.37,0,0,0,3.41,2.666C463.321,129.2,463.908,129.265,463.9,129.306Z" transform="translate(-52.144 -10.572)" fill="#455a64"/>
    <path id="Path_94" data-name="Path 94" d="M461.5,93.538a4.806,4.806,0,0,1-1.016.15,10.57,10.57,0,0,1-2.809-.075,5.349,5.349,0,0,1-3.546-2.148,11.506,11.506,0,0,1-.927-2.292,3.81,3.81,0,0,0-1.555-1.916,10.988,10.988,0,0,0-4.774-1.248,8.325,8.325,0,0,1-3.976-1.241,3.929,3.929,0,0,1-1.63-2.271,2.256,2.256,0,0,1-.048-.771c0-.177.041-.266.054-.266a4.782,4.782,0,0,0,.13,1,3.894,3.894,0,0,0,1.637,2.1,8.24,8.24,0,0,0,3.866,1.118,11.125,11.125,0,0,1,4.938,1.275,4.146,4.146,0,0,1,1.692,2.094,11.4,11.4,0,0,0,.88,2.237,5.151,5.151,0,0,0,3.314,2.046,11.77,11.77,0,0,0,2.728.184A6.907,6.907,0,0,1,461.5,93.538Z" transform="translate(-50.423 -9.218)" fill="#455a64"/>
    <path id="Path_95" data-name="Path 95" d="M459.966,87.877a2.272,2.272,0,0,1-.8.116,4.864,4.864,0,0,1-3.41-1.364,6.244,6.244,0,0,1-1.057-1.412c-.614-1.037-1.207-2.312-2.483-2.844a8.184,8.184,0,0,0-3.819-.334,11.72,11.72,0,0,1-3.26,0,4.1,4.1,0,0,1-2.046-.9,2.236,2.236,0,0,1-.395-.45c-.082-.118-.116-.18-.1-.184a4.586,4.586,0,0,0,.586.525,4.3,4.3,0,0,0,1.972.764,12.365,12.365,0,0,0,3.191-.055,8.185,8.185,0,0,1,3.99.341,3.923,3.923,0,0,1,1.63,1.364,17.387,17.387,0,0,1,.988,1.65,6.52,6.52,0,0,0,.989,1.364,4.755,4.755,0,0,0,1.166.866,5.059,5.059,0,0,0,2.046.566A5.26,5.26,0,0,1,459.966,87.877Z" transform="translate(-50.582 -9.109)" fill="#455a64"/>
    <path id="Path_96" data-name="Path 96" d="M466.561,128.082c-.034,0,.184-.451.437-1.3a11.727,11.727,0,0,0,.45-3.656,11.131,11.131,0,0,0-1.453-5.2c-.5-.893-1.255-1.691-1.875-2.673a4.765,4.765,0,0,1-.682-1.644,3.675,3.675,0,0,1,.15-1.841,21.917,21.917,0,0,0,1.214-3.253,4.718,4.718,0,0,0-.887-2.953,14.39,14.39,0,0,1-.73-1.364,5.013,5.013,0,0,1-.389-1.425,12.321,12.321,0,0,1,.081-2.6,6.89,6.89,0,0,0-.327-3.628,3.3,3.3,0,0,0-.805-1.064.14.14,0,0,1,.081.041.823.823,0,0,1,.219.157,2.442,2.442,0,0,1,.634.812,6.744,6.744,0,0,1,.444,3.7,12.987,12.987,0,0,0-.035,2.544,6.551,6.551,0,0,0,1.1,2.647,9.02,9.02,0,0,1,.744,1.453,3.417,3.417,0,0,1,.2,1.718,20.041,20.041,0,0,1-1.221,3.315,3.41,3.41,0,0,0-.143,1.67,4.515,4.515,0,0,0,.641,1.521c.579.949,1.364,1.76,1.862,2.694a11.253,11.253,0,0,1,1.418,5.367,11.01,11.01,0,0,1-.573,3.7,7.116,7.116,0,0,1-.4.941A1.26,1.26,0,0,1,466.561,128.082Z" transform="translate(-52.771 -10.82)" fill="#455a64"/>
    <path id="Path_97" data-name="Path 97" d="M435.192,263.786s-4.6-43.539-4.863-59.627,7.236-31.965,7.236-31.965l29.38-1.221s5.811,16.321,5.913,23.188c.2,13.326-3.539,26.483-3.11,37.054l.982,32.6" transform="translate(-49.18 -19.448)" fill="#263238"/>
    <path id="Path_98" data-name="Path 98" d="M472.217,215.324a4.771,4.771,0,0,1-.484.368l-.267.184-.286.279a4.75,4.75,0,0,0-.682.73c-.948,1.159-1.637,3.24-2.3,5.824a19.6,19.6,0,0,1-1.486,4.147,7.27,7.27,0,0,1-.682,1.029c-.123.164-.239.341-.383.5l-.45.45a7.289,7.289,0,0,1-2.21,1.418c-1.643.724-3.5,1.065-5.2,1.917a8.188,8.188,0,0,0-3.771,4.3c-.833,1.848-1.364,3.786-2.046,5.6a10.1,10.1,0,0,1-3.069,4.651,8.429,8.429,0,0,1-4.774,1.507c-1.583.1-3.049.048-4.365.245a6.906,6.906,0,0,0-3.288,1.241,4.611,4.611,0,0,0-1.527,2.156,3.265,3.265,0,0,0-.116,1.67c.082.382.184.566.164.573a1.713,1.713,0,0,1-.232-.559,3.135,3.135,0,0,1,.054-1.726,4.641,4.641,0,0,1,1.535-2.271,6.991,6.991,0,0,1,3.41-1.364c1.364-.218,2.817-.19,4.378-.293a8.185,8.185,0,0,0,4.631-1.473,9.9,9.9,0,0,0,2.939-4.514c.682-1.794,1.18-3.738,2.046-5.62a8.529,8.529,0,0,1,3.942-4.468c1.759-.872,3.622-1.207,5.224-1.9a7.152,7.152,0,0,0,2.128-1.364l.43-.43c.136-.15.252-.321.375-.477a6.546,6.546,0,0,0,.634-.989A19.512,19.512,0,0,0,468,222.566c.682-2.577,1.425-4.685,2.428-5.851a4.43,4.43,0,0,1,.682-.723c.109-.1.2-.191.3-.267l.28-.177A4.885,4.885,0,0,1,472.217,215.324Z" transform="translate(-49.677 -24.517)" fill="#fafafa"/>
    <path id="Path_99" data-name="Path 99" d="M472.036,192.578a3.106,3.106,0,0,1,.041.58,7.08,7.08,0,0,1-.2,1.67,10.742,10.742,0,0,1-3.321,5.129,19.784,19.784,0,0,1-3.41,2.516c-1.317.778-2.77,1.521-4.263,2.367a22.039,22.039,0,0,0-4.352,3.062,16.821,16.821,0,0,0-3.3,4.631,42.411,42.411,0,0,1-2.858,5.041,12.111,12.111,0,0,1-1.868,2.046,11.313,11.313,0,0,1-2.258,1.493,27.2,27.2,0,0,1-4.562,1.753,40.776,40.776,0,0,0-4.011,1.364,15.39,15.39,0,0,0-3.056,1.637,9.474,9.474,0,0,0-1.916,1.766,8.809,8.809,0,0,0-1.153,1.91,3.572,3.572,0,0,1,.191-.552,6.845,6.845,0,0,1,.852-1.446,9.2,9.2,0,0,1,1.91-1.841A15.62,15.62,0,0,1,437.575,224a41.029,41.029,0,0,1,4.017-1.4,28.266,28.266,0,0,0,4.5-1.76,11.643,11.643,0,0,0,2.149-1.445,12.1,12.1,0,0,0,1.8-2.005,43.873,43.873,0,0,0,2.83-5.006,16.932,16.932,0,0,1,3.41-4.719,21.975,21.975,0,0,1,4.433-3.1c1.5-.839,2.953-1.569,4.269-2.339a19.675,19.675,0,0,0,3.41-2.442,10.812,10.812,0,0,0,3.356-4.986A10.386,10.386,0,0,0,472.036,192.578Z" transform="translate(-49.32 -21.917)" fill="#fafafa"/>
    <path id="Path_100" data-name="Path 100" d="M430.465,206.4a.528.528,0,0,1-.061-.136,3.551,3.551,0,0,1-.129-.4,3.256,3.256,0,0,1,.068-1.637,6.757,6.757,0,0,1,4.317-3.983c1.214-.416,2.585-.682,4.017-1.036a7.564,7.564,0,0,0,5.559-4.14,21.924,21.924,0,0,0,1.016-2.448,26.653,26.653,0,0,1,2.162-5.231,8.334,8.334,0,0,1,4.446-3.458,40.255,40.255,0,0,1,5.109-1.3,16.928,16.928,0,0,0,4.439-1.515,9.325,9.325,0,0,0,3-2.728,10.141,10.141,0,0,0,1.91-5.524,15.642,15.642,0,0,0-.143-2.182,7.1,7.1,0,0,1,.279,2.182,10.041,10.041,0,0,1-1.841,5.668,9.432,9.432,0,0,1-3.062,2.817,16.994,16.994,0,0,1-4.508,1.576,40.505,40.505,0,0,0-5.06,1.3,8.006,8.006,0,0,0-4.269,3.321,26.674,26.674,0,0,0-2.135,5.157,21.4,21.4,0,0,1-1.043,2.489,9.056,9.056,0,0,1-1.528,2.114,8.877,8.877,0,0,1-4.263,2.149c-1.445.368-2.809.6-4,1a6.606,6.606,0,0,0-4.269,3.785,3.449,3.449,0,0,0-.129,1.583A3.421,3.421,0,0,1,430.465,206.4Z" transform="translate(-49.166 -19.415)" fill="#fafafa"/>
    <path id="Path_101" data-name="Path 101" d="M470,252.592a2.5,2.5,0,0,1,.048.43,4.509,4.509,0,0,1-.129,1.228,6.959,6.959,0,0,1-2.578,3.683,11.348,11.348,0,0,1-2.728,1.61c-1.043.443-2.2.8-3.41,1.173a28.214,28.214,0,0,0-3.689,1.364,10.533,10.533,0,0,0-3.281,2.448c-1,1.037-1.855,2.176-2.81,3.185a12.814,12.814,0,0,1-3.144,2.455,13.852,13.852,0,0,1-6.486,1.692,12.925,12.925,0,0,1-4.46-.744,8.5,8.5,0,0,1-1.132-.484,1.8,1.8,0,0,1-.375-.212,2.933,2.933,0,0,1,.4.143,12.011,12.011,0,0,0,1.146.422,13.634,13.634,0,0,0,4.419.621,13.788,13.788,0,0,0,6.329-1.725,12.776,12.776,0,0,0,3.049-2.407c.934-1,1.786-2.128,2.8-3.192a10.96,10.96,0,0,1,3.465-2.523,28.272,28.272,0,0,1,3.744-1.364,35.76,35.76,0,0,0,3.41-1.132,11.415,11.415,0,0,0,2.66-1.535,6.95,6.95,0,0,0,2.6-3.519A8.668,8.668,0,0,0,470,252.592Z" transform="translate(-49.809 -28.776)" fill="#fafafa"/>
    <path id="Path_102" data-name="Path 102" d="M466.85,146.124l-5.688.136a9.2,9.2,0,0,1-1.282,3.226,97.221,97.221,0,0,1-9.35-23.741c.136-.443.293-.934.491-1.48a6.3,6.3,0,0,0-.074-2.5c-.164-.988-.437-2.319-.519-2.933-.252-1.882-.559-2.175-1.213-1.964-.887.293.368,5.272-.361,5.381-.4.055-.873-1.65-1.01-3.049s-.778-5.708-1.235-5.995c-.682-.423-1.275.245-1.1,1.637s.389,5.619-.348,5.681-1.364-7.087-1.364-7.087.116-1.554-.743-1.521c-1.541.068-.335,7.6-.2,8.314.1.491-.682.586-.778.048s-.45-7.141-2.046-7.087c-1.214,0,.934,6.2.252,7.632s-1.146-4.856-2.3-4.774c-.43.034-.75.116.041,3.669a80.781,80.781,0,0,0,2.728,8.327c1.828,9.854,9.848,41.383,22.417,35.614,7.038-3.233,9.889-17.541,9.889-17.541Z" transform="translate(-50.004 -12.699)" fill="#b78876"/>
    <path id="Path_103" data-name="Path 103" d="M443.237,120.707a.321.321,0,0,0,.164,0,.36.36,0,0,0,.252-.4c0-.423-.082-1.037-.177-1.835a25.562,25.562,0,0,1-.314-2.905c0-.573,0-1.187.035-1.834a6.765,6.765,0,0,1,.1-.982c.055-.306.26-.682.5-.621h.042a.545.545,0,0,1,.5.464,2.653,2.653,0,0,1,.1.914h0a53.28,53.28,0,0,0,.73,5.694c.055.252.109.512.191.771a2.842,2.842,0,0,0,.136.389,1.933,1.933,0,0,0,.116.2.361.361,0,0,0,.122.123.371.371,0,0,0,.164.055.511.511,0,0,0,.27-.116.5.5,0,0,0,.159-.246,1.949,1.949,0,0,0,.129-.415,6.937,6.937,0,0,0,.11-.833,24.9,24.9,0,0,0-.048-3.41,7.681,7.681,0,0,1-.068-1.711.952.952,0,0,1,.334-.634.355.355,0,0,1,.143-.049.36.36,0,0,1,.151.014.579.579,0,0,1,.164.068.22.22,0,0,1,.075.1,8.749,8.749,0,0,1,.47,1.711c.123.6.225,1.221.321,1.841s.184,1.248.259,1.882a13.87,13.87,0,0,0,.314,1.944,7.494,7.494,0,0,0,.306.962,1.805,1.805,0,0,0,.287.484.4.4,0,0,0,.179.134.408.408,0,0,0,.223.017.421.421,0,0,0,.18-.117.435.435,0,0,0,.1-.19,3.409,3.409,0,0,0,.074-1.064,9.9,9.9,0,0,0-.074-1.01c-.048-.572-.1-1.138-.123-1.7a6.748,6.748,0,0,1,0-.825,1.358,1.358,0,0,1,.089-.354.351.351,0,0,1,.061-.1h.089c.451-.184.6.443.724.948s.17,1.077.279,1.616c.178,1.071.409,2.142.525,3.165a3.784,3.784,0,0,1-.054,1.473c-.164.491-.328.975-.484,1.46v.089a78.621,78.621,0,0,0,3.049,9.862c1.077,2.912,2.162,5.456,3.11,7.5s1.808,3.648,2.394,4.726l.682,1.221a2.3,2.3,0,0,0,.266.409,2.759,2.759,0,0,0-.212-.437l-.682-1.248c-.559-1.1-1.364-2.728-2.291-4.774s-1.978-4.59-3.028-7.5a81.369,81.369,0,0,1-2.987-9.834v.1c.157-.477.314-.962.477-1.446a3.907,3.907,0,0,0,.081-1.63c-.122-1.071-.348-2.107-.525-3.185-.1-.531-.17-1.077-.279-1.637a3.018,3.018,0,0,0-.144-.846.8.8,0,0,0-.376-.382.861.861,0,0,0-.539,0h-.109a.444.444,0,0,0-.157.089.6.6,0,0,0-.171.239,1.547,1.547,0,0,0-.116.463,6.434,6.434,0,0,0,0,.887c0,.573.082,1.146.13,1.719,0,.334.054.682.068.988a3.346,3.346,0,0,1-.048.921c0,.068-.055.054,0,.089l-.041-.041a1.343,1.343,0,0,1-.2-.368,6.647,6.647,0,0,1-.294-.907,12.721,12.721,0,0,1-.306-1.889q-.109-.962-.266-1.9c-.1-.628-.2-1.242-.328-1.856a8.3,8.3,0,0,0-.518-1.821.579.579,0,0,0-.212-.238,1.138,1.138,0,0,0-.252-.109.754.754,0,0,0-.579.081,1.271,1.271,0,0,0-.5.887,3.3,3.3,0,0,0,0,.934c0,.293.068.579.089.866a25.253,25.253,0,0,1,.061,3.355,5.788,5.788,0,0,1-.1.791,1.51,1.51,0,0,1-.1.355.423.423,0,0,1-.074.122c0,.062-.048,0-.042.082v-.089a1.433,1.433,0,0,1-.081-.143c-.048-.109-.089-.232-.129-.348-.075-.245-.13-.5-.184-.743a54.128,54.128,0,0,1-.771-5.647h0a2.962,2.962,0,0,0-.116-1.016.957.957,0,0,0-.266-.45.686.686,0,0,0-.233-.148.7.7,0,0,0-.272-.043h.041a.6.6,0,0,0-.339.05.59.59,0,0,0-.254.229,1.512,1.512,0,0,0-.2.532,6.814,6.814,0,0,0-.1,1.023v1.855a23.806,23.806,0,0,0,.376,2.919c.116.791.2,1.4.245,1.82a.321.321,0,0,1-.035.213.326.326,0,0,1-.162.143A1.1,1.1,0,0,0,443.237,120.707Z" transform="translate(-50.637 -12.695)" fill="#a36957"/>
    <path id="Path_104" data-name="Path 104" d="M391.327,161.14a14.586,14.586,0,0,0-3.949.457c-3.526.927-9.6,4.61-9.855,9.159h4.42s-2.476,5.265-1.753,4.774a56.737,56.737,0,0,0,5.64-5.081Z" transform="translate(-43.145 -18.324)" fill="#b78876"/>
    <path id="Path_105" data-name="Path 105" d="M460.934,69.53c-.1,0-.5-3.642-.894-8.184s-.64-8.184-.546-8.184.5,3.642.894,8.184S461.029,69.53,460.934,69.53Z" transform="translate(-52.511 -5.984)" fill="#263238"/>
    <path id="Path_106" data-name="Path 106" d="M481.24,53.478c.075.055-2.905,4.385-6.663,9.671s-6.875,9.548-6.956,9.466,2.905-4.385,6.663-9.671S481.159,53.423,481.24,53.478Z" transform="translate(-53.442 -6.02)" fill="#263238"/>
    <path id="Path_107" data-name="Path 107" d="M490.068,75.637c0,.1-3.464.893-7.775,1.78s-7.829,1.528-7.85,1.432,3.458-.893,7.775-1.78S490.02,75.542,490.068,75.637Z" transform="translate(-54.222 -8.551)" fill="#263238"/>
    <path id="Path_108" data-name="Path 108" d="M226.71,180.32,202.567,304.308l-3.137,16.232,160.952-.777c7.229-.035,13.64-6.452,15.952-15.986l28.549-117.052c1.766-7.236-2.108-14.766-7.591-14.759l-162.944.17C230.8,172.13,227.624,175.485,226.71,180.32Z" transform="translate(-22.792 -19.562)" fill="#aadaff"/>
    <g id="Group_3" data-name="Group 3" transform="translate(176.638 152.404)" opacity="0.5">
      <path id="Path_109" data-name="Path 109" d="M226.71,180.32,202.567,304.308l-3.137,16.232,160.952-.777c7.229-.035,13.64-6.452,15.952-15.986l28.549-117.052c1.766-7.236-2.108-14.766-7.591-14.759l-162.944.17C230.8,172.13,227.624,175.485,226.71,180.32Z" transform="translate(-199.43 -171.966)" opacity="0.5"/>
    </g>
    <path id="Path_110" data-name="Path 110" d="M337.36,292.893,320.31,155.531a10.792,10.792,0,0,0-10.475-9.808l-37.374.116a10.23,10.23,0,0,0-7.386,3.274l-17.732,18.871-103.937.56c-6.35.034-11.233,6.049-10.394,12.8L148.842,308.3a10.806,10.806,0,0,0,10.462,9.807l181.173-.361c20.174.415,22.1-5.538,22.1-5.538C339.421,317.329,337.36,292.927,337.36,292.893Z" transform="translate(-15.191 -16.562)" fill="#aadaff"/>
    <g id="Group_4" data-name="Group 4" transform="translate(190.878 205.068)" opacity="0.5">
      <path id="Path_111" data-name="Path 111" d="M266.76,237.5l-6.752-6.077L241.77,251.009l-20.152-18.131-6.111,6.561,20.154,18.131-18.237,19.583,6.759,6.077,18.232-19.582,20.15,18.129,6.111-6.56-20.152-18.131Z" transform="translate(-215.507 -231.425)" fill="#606060" fill-rule="evenodd" opacity="0.5"/>
    </g>
    <path id="Path_112" data-name="Path 112" d="M392.226,78.312a1.262,1.262,0,0,1-.771-1.112l-.273-6.329a1.268,1.268,0,0,1,.98-1.3,1.269,1.269,0,0,1,.583,0,3.969,3.969,0,0,0,3.082-.607,3.551,3.551,0,0,0,1.589-2.332,3.639,3.639,0,0,0-.763-2.728,4.091,4.091,0,0,0-2.687-1.616,4.773,4.773,0,0,0-4.842,3.41,1.275,1.275,0,0,1-2.455-.682,7.339,7.339,0,0,1,7.591-5.3,6.587,6.587,0,0,1,4.426,2.612,6.228,6.228,0,0,1,1.249,4.685,6.144,6.144,0,0,1-2.728,4.037,6.633,6.633,0,0,1-3.452,1.125l.212,4.883a1.275,1.275,0,0,1-1.773,1.221Z" transform="translate(-44.187 -6.731)" fill="#64a3d3"/>
    <path id="Path_113" data-name="Path 113" d="M394.787,83.514a1.043,1.043,0,0,1-1.726.859A1.046,1.046,0,0,1,394.08,82.6a1.034,1.034,0,0,1,.707.918Z" transform="translate(-44.88 -9.342)" fill="#ddeffd"/>
    <path id="Path_114" data-name="Path 114" d="M368.194,67.771a3.052,3.052,0,0,0,.062-.409c0-.3.074-.682.129-1.221a14.9,14.9,0,0,1,.334-1.964c.089-.382.136-.8.273-1.234s.273-.893.423-1.364a23.5,23.5,0,0,1,3.41-6.5,22.846,22.846,0,0,1,7.167-6.233,22.515,22.515,0,0,1,5.054-2.087,22.879,22.879,0,0,1,5.832-.764,22.605,22.605,0,0,1,3.1.164c.525.055,1.043.191,1.569.28a11.676,11.676,0,0,1,1.569.382,21.815,21.815,0,0,1,6.063,2.748A22.809,22.809,0,0,1,412.2,60.889a22.338,22.338,0,0,1,1.364,7.782,21.935,21.935,0,0,1-1.425,8.007l-.307.777-.041.1.041.1c1.712,3.935,3.41,7.8,5.013,11.546l.286-.327L406.9,84.957l-.123-.048-.1.1a22.581,22.581,0,0,1-28.058,2.708,23.306,23.306,0,0,1-5.749-5.354A22.654,22.654,0,0,1,368.5,71.9c-.082-.682-.15-1.255-.212-1.773s0-.941-.034-1.3a6,6,0,0,1,0-.8.136.136,0,0,0,.115-.145.137.137,0,0,0-.135-.126.136.136,0,0,0-.02.271v2.114c0,.518.115,1.112.183,1.787a24.452,24.452,0,0,0,1.167,4.815,24.965,24.965,0,0,0,3.124,5.8,23.506,23.506,0,0,0,5.79,5.456,22.71,22.71,0,0,0,28.46-2.633l-.225.048,10.23,3.942.512.2-.226-.525c-1.623-3.744-3.3-7.6-5.005-11.546v.2l.314-.8A22.326,22.326,0,0,0,414,68.691a22.83,22.83,0,0,0-1.364-7.952,23.192,23.192,0,0,0-9.214-11.533,22.033,22.033,0,0,0-6.219-2.8,10.872,10.872,0,0,0-1.6-.375c-.532-.1-1.058-.232-1.589-.28a23.458,23.458,0,0,0-3.144-.177,22.889,22.889,0,0,0-5.92.8,23.3,23.3,0,0,0-5.121,2.141,22.887,22.887,0,0,0-7.209,6.377,23.305,23.305,0,0,0-3.362,6.6c-.143.491-.28.962-.4,1.364a11.989,11.989,0,0,0-.259,1.248,12.946,12.946,0,0,0-.287,1.978c-.041.525-.068.928-.089,1.228A1.781,1.781,0,0,0,368.194,67.771Z" transform="translate(-42.068 -5.117)" fill="#263238"/>
  </g>
</svg>
