<?xml version="1.0" encoding="UTF-8" standalone="no"?>
<!-- Created with Inkscape (http://www.inkscape.org/) -->

<svg
   xmlns:dc="http://purl.org/dc/elements/1.1/"
   xmlns:cc="http://creativecommons.org/ns#"
   xmlns:rdf="http://www.w3.org/1999/02/22-rdf-syntax-ns#"
   xmlns:svg="http://www.w3.org/2000/svg"
   xmlns="http://www.w3.org/2000/svg"
   xmlns:sodipodi="http://sodipodi.sourceforge.net/DTD/sodipodi-0.dtd"
   xmlns:inkscape="http://www.inkscape.org/namespaces/inkscape"
   width="140mm"
   height="155mm"
   viewBox="0 0 140 155"
   version="1.1"
   id="svg8"
   inkscape:version="0.92.4 (5da689c313, 2019-01-14)"
   sodipodi:docname="Logo White._svg.svg">
  <defs
     id="defs2" />
  <sodipodi:namedview
     id="base"
     pagecolor="#ffffff"
     bordercolor="#666666"
     borderopacity="1.0"
     inkscape:pageopacity="0.0"
     inkscape:pageshadow="2"
     inkscape:zoom="0.35"
     inkscape:cx="-42.857143"
     inkscape:cy="560"
     inkscape:document-units="mm"
     inkscape:current-layer="layer1"
     showgrid="false"
     inkscape:window-width="1920"
     inkscape:window-height="1001"
     inkscape:window-x="-9"
     inkscape:window-y="-9"
     inkscape:window-maximized="1" />
  <metadata
     id="metadata5">
    <rdf:RDF>
      <cc:Work
         rdf:about="">
        <dc:format>image/svg+xml</dc:format>
        <dc:type
           rdf:resource="http://purl.org/dc/dcmitype/StillImage" />
        <dc:title></dc:title>
      </cc:Work>
    </rdf:RDF>
  </metadata>
  <g
     inkscape:label="Layer 1"
     inkscape:groupmode="layer"
     id="layer1"
     transform="translate(0,-142)">
    <g
       transform="translate(-364.17555,-166.75493)"
       id="layer1-0"
       inkscape:label="Layer 1">
      <path
         inkscape:connector-curvature="0"
         id="path21"
         d="m 428.82708,450.31013 c 0,-9.79506 -0.003,-10.31725 -0.0617,-10.33356 -0.034,-0.009 -0.17286,-0.0273 -0.30868,-0.0396 -1.02641,-0.0934 -4.12879,-0.57168 -4.70959,-0.72606 -0.0679,-0.018 -0.38541,-0.0896 -0.70555,-0.15892 -0.67776,-0.14683 -1.9426,-0.4595 -2.57528,-0.63663 -1.09982,-0.3079 -3.33714,-1.03221 -3.8049,-1.23181 -0.38146,-0.16277 -0.56464,-0.2375 -1.04166,-0.42493 -0.23056,-0.0906 -0.54012,-0.22385 -0.68792,-0.29612 -0.14779,-0.0723 -0.45922,-0.2168 -0.69205,-0.32116 -0.60546,-0.2714 -2.37789,-1.15498 -2.74563,-1.36875 -0.1713,-0.0996 -0.32023,-0.18105 -0.33094,-0.18105 -0.0406,0 -0.92305,-0.51416 -1.22081,-0.71131 -0.17105,-0.11325 -0.31747,-0.20591 -0.32538,-0.20591 -0.0609,0 -1.07156,-0.66346 -1.47848,-0.97053 -0.11542,-0.0871 -0.22294,-0.15836 -0.23893,-0.15836 -0.0367,0 -0.7423,-0.51311 -1.06378,-0.7736 -0.1334,-0.1081 -0.29485,-0.22829 -0.35876,-0.26709 -0.16596,-0.10076 -0.94123,-0.73072 -1.23509,-1.0036 -0.13689,-0.12712 -0.45571,-0.41646 -0.70849,-0.64298 -3.40572,-3.05192 -6.05907,-6.46152 -8.26202,-10.61686 l -0.21742,-0.41009 4.14593,-4.11938 c 2.28027,-2.26566 4.15146,-4.11312 4.15822,-4.10546 0.007,0.008 0.1039,0.23617 0.21587,0.50781 1.2013,2.91415 2.72599,5.46599 4.60556,7.70819 0.48769,0.58177 1.61222,1.75375 2.22558,2.31947 0.63851,0.58891 1.55837,1.37024 1.84679,1.56865 0.11642,0.0801 0.37836,0.27546 0.58208,0.43415 0.80289,0.6254 2.10366,1.4112 3.72181,2.24834 1.02739,0.53152 2.57627,1.25486 2.92806,1.36744 0.0776,0.0248 0.41892,0.14793 0.75847,0.27354 0.83527,0.30899 2.10087,0.7223 2.68111,0.87556 0.26194,0.0692 0.57419,0.15541 0.69388,0.1916 0.40618,0.12282 2.10899,0.48535 2.95737,0.62964 0.87907,0.14951 1.83563,0.28148 2.46945,0.34071 0.26429,0.0247 1.12159,0.12128 1.86972,0.21066 0.25224,0.0301 0.60942,0.0699 0.79375,0.0883 0.44244,0.0442 3.08397,0.0428 3.42195,-0.002 0.40902,-0.054 1.15496,-0.13126 2.03654,-0.21096 2.33051,-0.21068 4.30535,-0.57265 6.69472,-1.22707 1.10029,-0.30137 3.37163,-1.06893 4.02167,-1.35907 0.52355,-0.23369 1.63496,-0.76891 1.81682,-0.87493 0.0873,-0.0509 0.42067,-0.22349 0.74082,-0.38355 1.29273,-0.6463 2.48604,-1.39142 3.75865,-2.34695 1.44562,-1.08543 2.88334,-2.42552 3.67345,-3.424 0.0936,-0.11833 0.37571,-0.45965 0.62681,-0.75847 2.56067,-3.0473 4.49023,-6.7405 5.71191,-10.93263 0.75999,-2.60789 1.17383,-5.08518 1.40555,-8.41375 0.049,-0.70439 0.061,-2.86248 0.0191,-3.43959 l -0.0269,-0.37041 1.54065,-1.74625 c 0.84737,-0.96044 2.90066,-3.29407 4.56289,-5.18584 1.66223,-1.89177 3.0461,-3.45916 3.07527,-3.48308 0.0617,-0.0506 0.0435,-0.11661 0.33391,1.20766 0.51135,2.33151 0.87041,4.61399 1.06829,6.79098 0.23362,2.57031 0.25253,5.43667 0.0537,8.14917 -0.59875,8.16969 -2.92906,15.35371 -6.93047,21.36559 -0.76295,1.14629 -1.89933,2.65131 -2.70802,3.5865 -1.29025,1.49208 -2.82733,3.01076 -4.29422,4.24281 -2.51535,2.11265 -5.49964,4.00588 -8.52947,5.41107 -3.90083,1.80916 -8.02128,3.03285 -12.4075,3.68479 -0.6992,0.10392 -2.04018,0.27654 -2.41653,0.31107 l -0.10583,0.01 -0.009,10.32757 -0.009,10.32757 h -5.50303 -5.50328 z m -49.58293,-14.96322 c -1.39609,-0.1049 -2.30615,-0.27427 -3.40726,-0.63414 -1.85859,-0.60743 -3.39592,-1.53635 -4.69095,-2.83449 -0.84175,-0.84377 -1.35361,-1.55115 -1.85287,-2.56063 -0.49138,-0.99354 -0.79963,-2.07997 -0.90028,-3.17303 -0.11252,-1.22191 0.0549,-2.74626 0.43077,-3.92195 0.95919,-3.00031 3.30604,-5.19692 6.68114,-6.25341 1.43926,-0.45052 2.6918,-0.64255 4.51556,-0.69227 1.55533,-0.0424 2.32233,-0.18904 3.21386,-0.61445 0.80215,-0.38277 1.23455,-0.73208 2.73164,-2.20674 0.65065,-0.64091 2.46728,-2.41147 4.03695,-3.93459 1.56966,-1.52312 4.07737,-3.96071 5.57269,-5.41687 2.71379,-2.64272 3.30485,-3.21965 9.89943,-9.66266 1.92538,-1.88113 3.61864,-3.55516 3.76282,-3.72007 0.37059,-0.42389 0.6379,-0.841 0.75554,-1.17896 0.12198,-0.35041 0.13212,-0.71317 0.0444,-1.58931 -0.0682,-0.68196 -0.0501,-1.78145 0.0388,-2.35047 0.51049,-3.26741 2.58723,-5.97315 5.83261,-7.59922 2.14657,-1.07551 4.42935,-1.5058 6.55037,-1.23468 3.24111,0.41429 5.98651,1.70226 7.70089,3.61279 0.71871,0.80092 1.36476,1.80203 1.6847,2.61055 0.45978,1.16192 0.58337,2.17001 0.50944,4.15559 -0.0616,1.65493 -0.019,2.07992 0.23467,2.34165 0.66473,0.68575 4.71075,3.22085 8.40878,5.26867 1.30943,0.72511 3.26356,1.73209 3.47486,1.79063 0.43824,0.12142 0.82697,0.13697 3.03389,0.12135 2.36075,-0.0167 2.46136,-0.0246 3.00997,-0.23729 0.28301,-0.10971 0.41718,-0.18767 0.96362,-0.55991 0.79734,-0.54315 3.02485,-2.94512 8.32544,-8.97747 2.07757,-2.36438 3.82154,-4.34081 3.87551,-4.39208 0.10674,-0.10142 7.34811,-8.34562 7.73556,-8.80684 0.13039,-0.15522 0.29672,-0.35691 0.3696,-0.44821 0.0729,-0.0913 0.53709,-0.53579 1.03156,-0.98778 2.58158,-2.35978 3.41446,-3.2733 3.74157,-4.10382 0.11725,-0.2977 0.11227,-0.85826 -0.0144,-1.61482 -0.2114,-1.26306 -0.20207,-2.16367 0.0338,-3.26703 0.47094,-2.20263 1.79904,-4.26022 3.77131,-5.8428 0.36796,-0.29525 1.18196,-0.82837 1.62826,-1.0664 1.25527,-0.66949 2.13692,-0.93394 4.28077,-1.284 0.64717,-0.10567 0.74434,-0.11248 1.64042,-0.11498 1.00623,-0.003 1.36852,0.0266 2.20486,0.17865 1.85646,0.33761 3.64925,1.14626 5.121,2.30983 0.43557,0.34436 1.33358,1.23549 1.66678,1.654 0.86574,1.08739 1.54463,2.43845 1.87707,3.73553 0.67882,2.64858 0.26884,5.20299 -1.18533,7.38518 -0.43148,0.6475 -0.71198,0.98765 -1.2878,1.56165 -1.52324,1.51844 -3.50133,2.57331 -5.68019,3.02913 -0.84189,0.17613 -1.18438,0.20474 -2.80458,0.23432 -2.05715,0.0376 -2.25746,0.0743 -2.95902,0.54253 -1.30713,0.87241 -3.58757,3.15831 -6.91955,6.93611 -1.18936,1.34849 -2.29231,2.59468 -2.45101,2.76931 -0.3031,0.33351 -8.32194,9.42351 -9.50738,10.77737 -0.59206,0.67618 -0.828,0.91155 -1.69333,1.68925 -2.33392,2.09757 -3.87847,3.54854 -4.49826,4.22575 -0.67903,0.74193 -0.73879,0.87308 -0.73677,1.6168 10e-4,0.45806 0.0133,0.54688 0.16653,1.22439 0.21217,0.93834 0.24808,1.20225 0.21981,1.61547 -0.0963,1.40793 -0.52825,2.94416 -1.17014,4.16186 -0.72357,1.37265 -1.95545,2.72574 -3.32029,3.647 -1.95277,1.31812 -4.37597,1.99874 -7.11427,1.99825 -1.38442,-3.6e-4 -2.59746,-0.19557 -3.85978,-0.62149 -4.08927,-1.37975 -6.87443,-4.73544 -7.08223,-8.53298 -0.0251,-0.45884 0.017,-1.07926 0.12689,-1.86972 0.16594,-1.19361 0.1608,-1.51325 -0.0268,-1.66847 -0.1669,-0.13807 -0.67881,-0.44578 -1.22902,-0.73878 -0.28979,-0.15432 -1.14602,-0.62671 -1.90273,-1.04974 -0.75671,-0.42304 -1.52665,-0.85213 -1.71098,-0.95353 -0.35976,-0.19792 -1.86284,-1.0371 -3.30691,-1.84626 -0.48971,-0.27441 -0.91196,-0.49892 -0.93835,-0.49892 -0.0675,0 -1.23247,-0.69992 -1.5645,-0.93995 -0.31327,-0.22646 -0.87928,-0.50579 -1.19288,-0.58869 -0.42781,-0.1131 -0.80932,-0.12942 -3.02554,-0.12942 -2.27429,0 -2.67746,0.018 -3.18026,0.14222 -0.52681,0.13013 -1.18148,0.51079 -1.97327,1.14736 -0.93685,0.7532 -1.48536,1.28 -7.47291,7.17709 -2.86641,2.82311 -6.04828,5.95048 -7.07082,6.94973 -1.02254,0.99924 -3.03541,2.98426 -4.47305,4.41116 -2.06732,2.05187 -2.82033,2.77478 -3.60121,3.45722 -1.79807,1.5714 -2.49799,2.26668 -2.94606,2.9265 -0.3587,0.5282 -0.37657,0.64446 -0.43921,2.85762 -0.0418,1.47551 -0.0629,1.85304 -0.12286,2.19784 -0.37296,2.14353 -1.51726,4.0503 -3.35385,5.5886 -1.70469,1.42782 -3.85768,2.32787 -6.2254,2.60251 -0.45214,0.0524 -1.67028,0.0935 -2.01196,0.0679 z m 0.9525,-5.6258 c 1.04267,-0.0901 1.80084,-0.34223 2.56362,-0.8524 0.36867,-0.24658 0.87427,-0.73163 1.14883,-1.10213 0.53872,-0.72698 0.85602,-1.66898 0.85602,-2.54134 0,-1.09955 -0.42966,-2.11844 -1.25671,-2.9801 -0.70124,-0.73059 -1.5199,-1.16652 -2.60038,-1.3847 -0.34348,-0.0694 -0.50223,-0.0795 -1.24055,-0.0796 -0.92064,0 -1.03677,0.0179 -1.83445,0.28453 -1.30878,0.43745 -2.43284,1.57189 -2.87353,2.90006 -0.29107,0.87723 -0.27445,1.95292 0.0432,2.7944 0.6394,1.69401 2.12305,2.77391 4.06509,2.95884 0.45484,0.0433 0.65123,0.0438 1.12889,0.002 z M 448.78087,409.702 c 1.69099,-0.29108 3.15216,-1.31357 3.90826,-2.7349 0.62398,-1.17297 0.66844,-2.37862 0.12947,-3.51154 -0.37624,-0.79087 -0.93669,-1.4387 -1.65076,-1.90814 -0.65059,-0.42771 -1.47317,-0.69612 -2.52911,-0.82526 -0.99784,-0.12203 -2.50742,0.18838 -3.38984,0.69704 -1.09756,0.63267 -1.89656,1.74827 -2.13756,2.98458 -0.46373,2.37881 1.45577,4.84145 4.13076,5.2996 0.37524,0.0643 1.16151,0.0636 1.53878,-10e-4 z M 422.4634,390.23292 c 0.55411,-0.11671 0.95863,-0.26043 1.46007,-0.51874 0.50851,-0.26195 0.81251,-0.48526 1.21969,-0.89596 0.64485,-0.6504 1.05433,-1.44224 1.19528,-2.31132 0.20819,-1.28382 -0.22076,-2.56454 -1.20555,-3.59938 -1.09727,-1.15305 -2.48249,-1.6156 -4.43734,-1.48173 -0.54292,0.0372 -0.63877,0.0541 -1.01199,0.17836 -1.42133,0.47332 -2.49928,1.38847 -2.99798,2.54521 -0.60601,1.40566 -0.38161,3.04108 0.59537,4.339 0.73423,0.97542 1.7941,1.59658 3.0971,1.81513 0.46561,0.0781 1.55449,0.0412 2.08535,-0.0706 z m 66.39643,-21.71467 c 0.68949,-0.14052 1.34613,-0.42649 1.92759,-0.8395 0.3366,-0.23908 0.92639,-0.81734 1.15163,-1.12912 0.98672,-1.36582 1.16326,-2.88265 0.49168,-4.22469 -0.42691,-0.85309 -1.23096,-1.66944 -2.05619,-2.08761 -0.80051,-0.40565 -1.88241,-0.60942 -2.96831,-0.55906 -0.43217,0.02 -0.61853,0.0471 -1.01991,0.14795 -1.14457,0.28766 -1.80255,0.65136 -2.49324,1.37816 -1.12465,1.18345 -1.4743,2.61322 -0.98252,4.01762 0.633,1.80768 2.39468,3.12675 4.51293,3.37907 0.28521,0.034 1.09127,-0.0125 1.43634,-0.0828 z m -97.03635,36.62472 c -0.22282,-1.4859 -0.41063,-3.50074 -0.49732,-5.33534 -0.0486,-1.02834 -0.0485,-4.29 7e-5,-5.1021 0.41959,-7.0078 2.49271,-14.80713 6.24395,-23.49058 2.69257,-6.23279 6.45849,-13.25207 10.75996,-20.05543 1.11887,-1.76965 1.51045,-2.37305 2.73576,-4.21569 4.12381,-6.20144 8.36442,-11.97149 13.41716,-18.25626 3.10467,-3.8617 7.16344,-8.6021 9.66183,-11.28442 l 0.18489,-0.19851 0.15025,0.16085 c 3.57744,3.82976 9.24719,10.61721 13.45065,16.10222 10.25706,13.38424 18.058,26.08067 23.0008,37.43499 l 0.32479,0.74608 -0.61814,0.70031 c -0.33998,0.38517 -2.08978,2.37512 -3.88845,4.42211 -3.13995,3.57344 -3.44171,3.91091 -3.46743,3.87775 -0.006,-0.008 -0.14322,-0.37202 -0.30419,-0.80858 -2.31648,-6.28255 -6.12482,-13.83874 -10.70363,-21.23723 -4.5712,-7.3862 -9.86598,-14.82767 -16.05208,-22.56015 -1.45118,-1.81394 -1.82,-2.25694 -1.88579,-2.26512 -0.0635,-0.008 -0.0712,10e-4 -1.78892,2.14165 -5.78016,7.20246 -10.67618,14.01158 -15.15626,21.07848 -5.04203,7.95335 -9.11779,15.86657 -11.63082,22.58164 -2.18644,5.8424 -3.35284,10.70981 -3.71029,15.48309 l -0.0396,0.52917 -0.21783,0.21759 c -0.63183,0.63116 -9.69162,9.41702 -9.80033,9.50402 l -0.12806,0.10248 z"
         style="fill:#ffffff;stroke-width:0.03527779" />
    </g>
  </g>
</svg>
