<svg width="19" height="19" viewBox="0 0 19 19" fill="none" xmlns="http://www.w3.org/2000/svg">
<path fill-rule="evenodd" clip-rule="evenodd" d="M2.79541 8.2373C2.79541 4.9236 5.48171 2.2373 8.79541 2.2373C12.1091 2.2373 14.7954 4.9236 14.7954 8.2373C14.7954 11.551 12.1091 14.2373 8.79541 14.2373C5.48171 14.2373 2.79541 11.551 2.79541 8.2373ZM8.79541 0.237305C4.37714 0.237305 0.79541 3.81903 0.79541 8.2373C0.79541 12.6556 4.37714 16.2373 8.79541 16.2373C10.602 16.2373 12.2688 15.6385 13.608 14.6284L17.0883 17.9444C17.4788 18.3349 18.112 18.3349 18.5025 17.9444C18.893 17.5539 18.893 16.9207 18.5025 16.5302L15.0432 13.2343C16.1397 11.8651 16.7954 10.1278 16.7954 8.2373C16.7954 3.81903 13.2137 0.237305 8.79541 0.237305Z" fill="#040415"/>
</svg>
